<svg xmlns="http://www.w3.org/2000/svg" xmlns:xlink="http://www.w3.org/1999/xlink" width="96" height="96" viewBox="0 0 96 96">
  <defs>
    <filter id="Ellipse_12" x="0" y="0" width="96" height="96" filterUnits="userSpaceOnUse">
      <feOffset dy="6" input="SourceAlpha"/>
      <feGaussianBlur stdDeviation="6" result="blur"/>
      <feFlood flood-color="#b2b2b2" flood-opacity="0.396"/>
      <feComposite operator="in" in2="blur"/>
      <feComposite in="SourceGraphic"/>
    </filter>
  </defs>
  <g id="coins" transform="translate(-7 -164)">
    <g transform="matrix(1, 0, 0, 1, 7, 164)" filter="url(#Ellipse_12)">
      <circle id="Ellipse_12-2" data-name="Ellipse 12" cx="30" cy="30" r="30" transform="translate(18 12)" fill="#e48646"/>
    </g>
    <path id="Path_454" data-name="Path 454" d="M7478.077,1780.368a25.248,25.248,0,0,1,10.351-2.049h.158a.142.142,0,0,0,.032,0,25.323,25.323,0,0,1,10.491,2.049c2.675,1.258,4.146,2.938,4.122,4.549.023,1.612-1.447,3.291-4.122,4.549a25.368,25.368,0,0,1-10.516,2.048,29.208,29.208,0,0,1-6.586-.729v-.039h-.174a19.637,19.637,0,0,1-3.757-1.28c-2.669-1.255-4.136-2.93-4.122-4.537v-.023C7473.941,1783.3,7475.408,1781.624,7478.077,1780.368Zm17.561,11.519v7.939a27.04,27.04,0,0,1-3.76.657v-7.961A28.333,28.333,0,0,0,7495.638,1791.886Zm-9.872.677v7.967a27.663,27.663,0,0,1-3.758-.6v-7.939A28.836,28.836,0,0,0,7485.766,1792.563Zm-11.811,1.5V1787.9a8.638,8.638,0,0,0,1.941,1.69v7.687A4.274,4.274,0,0,1,7473.955,1794.062Zm3.117,4.021v-7.8c.164.085.333.168.5.249a20.079,20.079,0,0,0,3.256,1.173v7.921a18.357,18.357,0,0,1-2.754-1.013C7477.719,1798.442,7477.387,1798.265,7477.072,1798.083Zm9.87,2.53v-7.965c.542.027,1.094.042,1.651.042.717,0,1.417-.031,2.107-.076v7.967c-.689.046-1.39.078-2.107.078C7488.036,1800.659,7487.484,1800.642,7486.942,1800.613Zm12.167-2a17.62,17.62,0,0,1-2.3.883v-7.922a19.574,19.574,0,0,0,2.8-1.042c.334-.157.652-.324.959-.5v7.761A12.062,12.062,0,0,1,7499.109,1798.61Zm2.638-1.715v-7.368h-.356a8.519,8.519,0,0,0,1.841-1.624v6.159A3.913,3.913,0,0,1,7501.747,1796.895Z" transform="translate(-7433.593 -1583.489)" fill="#fff"/>
  </g>
</svg>
