<svg xmlns="http://www.w3.org/2000/svg" width="19.78" height="19.297" viewBox="0 0 19.78 19.297">
  <g id="Group_173" data-name="Group 173" transform="translate(-2861.305 166.07)">
    <path id="Path_106" data-name="Path 106" d="M2880.085-166.07H2862.3a1,1,0,0,0-1,1v17.3a1,1,0,0,0,1,1h17.78a1,1,0,0,0,1-1v-17.3A1,1,0,0,0,2880.085-166.07Zm0,18.3H2862.3v-17.3h17.78Z" fill="#727c8e"/>
    <g id="Group_172" data-name="Group 172">
      <path id="Path_107" data-name="Path 107" d="M2878.543-158.44h-3.877a.5.5,0,0,0-.5.5v3.877a.5.5,0,0,0,.5.5h3.877a.5.5,0,0,0,.5-.5v-3.877A.5.5,0,0,0,2878.543-158.44Zm-.5,3.877h-2.877v-2.877h2.877Z" fill="#727c8e"/>
      <path id="Path_108" data-name="Path 108" d="M2873.209-158.44h-3.878a.5.5,0,0,0-.5.5v3.877a.5.5,0,0,0,.5.5h3.878a.5.5,0,0,0,.5-.5v-3.877A.5.5,0,0,0,2873.209-158.44Zm-.5,3.877h-2.878v-2.877h2.878Z" fill="#727c8e"/>
      <path id="Path_109" data-name="Path 109" d="M2867.725-158.44h-3.879a.5.5,0,0,0-.5.5v3.877a.5.5,0,0,0,.5.5h3.879a.5.5,0,0,0,.5-.5v-3.877A.5.5,0,0,0,2867.725-158.44Zm-.5,3.877h-2.879v-2.877h2.879Z" fill="#727c8e"/>
      <path id="Path_110" data-name="Path 110" d="M2878.543-164.122h-3.877a.5.5,0,0,0-.5.5v3.877a.5.5,0,0,0,.5.5h3.877a.5.5,0,0,0,.5-.5v-3.877A.5.5,0,0,0,2878.543-164.122Zm-.5,3.877h-2.877v-2.877h2.877Z" fill="#727c8e"/>
      <path id="Path_111" data-name="Path 111" d="M2873.209-164.122h-3.878a.5.5,0,0,0-.5.5v3.877a.5.5,0,0,0,.5.5h3.878a.5.5,0,0,0,.5-.5v-3.877A.5.5,0,0,0,2873.209-164.122Zm-.5,3.877h-2.878v-2.877h2.878Z" fill="#727c8e"/>
      <path id="Path_112" data-name="Path 112" d="M2867.725-164.122h-3.879a.5.5,0,0,0-.5.5v3.877a.5.5,0,0,0,.5.5h3.879a.5.5,0,0,0,.5-.5v-3.877A.5.5,0,0,0,2867.725-164.122Zm-.5,3.877h-2.879v-2.877h2.879Z" fill="#727c8e"/>
    </g>
  </g>
</svg>
