<svg xmlns="http://www.w3.org/2000/svg" width="70.004" height="81.752" viewBox="0 0 70.004 81.752">
  <g id="Group_136" data-name="Group 136" transform="translate(-5933.892 -110.328)">
    <path id="Path_76" data-name="Path 76" d="M5982.226,144.937v37.705h8.49v-24.1A15.189,15.189,0,0,0,5982.226,144.937Z" transform="translate(13.181 9.438)" fill="#e48646"/>
    <path id="Path_77" data-name="Path 77" d="M5984.119,143.7v22.75h-35.645V143.7h-2a15.245,15.245,0,0,0-3.059.313V182.98h45.768V144.011a15.2,15.2,0,0,0-3.057-.313Z" transform="translate(2.596 9.1)" fill="#e48646"/>
    <path id="Path_78" data-name="Path 78" d="M5950.243,147.147v14.728l28.385,0V147.147a20.495,20.495,0,0,1-28.385,0Z" transform="translate(4.459 10.041)" fill="#e48646"/>
    <path id="Path_79" data-name="Path 79" d="M5933.892,158.537v24.1h8.486v-37.7A15.184,15.184,0,0,0,5933.892,158.537Z" transform="translate(0 9.438)" fill="#e48646"/>
    <path id="Path_80" data-name="Path 80" d="M5957.946,126.132c10.124-1.882,14.463-5.928,15.243-6.706.106-.112.117-.122.117-.122l1.868-2.2,1.5,2.474s.206.345.679.963a18.586,18.586,0,0,0,2.031,2.282,11.934,11.934,0,0,0,5.31,3.082,19.664,19.664,0,0,0-38.2-1.1c1.246.967,4.916,1.652,7.9,1.595A20.971,20.971,0,0,0,5957.946,126.132Z" transform="translate(3.437 0)" fill="#e48646"/>
    <path id="Path_81" data-name="Path 81" d="M5965.614,146.821a19.708,19.708,0,0,0,19.673-19.533c-5.151-.662-8.719-4.126-10.561-6.412-2.472,1.923-7.475,4.942-15.862,6.487a24.6,24.6,0,0,1-4.312.335,22.918,22.918,0,0,1-8.579-1.436c-.015.291-.047.577-.047.871A19.712,19.712,0,0,0,5965.614,146.821Zm4.916-18.212a3,3,0,1,1-3,3A3,3,0,0,1,5970.53,128.609Zm-11.673,0a3,3,0,1,1-3,3A3,3,0,0,1,5958.857,128.609Z" transform="translate(3.282 2.876)" fill="#e48646"/>
  </g>
</svg>
