<svg xmlns="http://www.w3.org/2000/svg" width="42" height="42" viewBox="0 0 42 42">
  <g id="Group_137" data-name="Group 137" transform="translate(-81 -608)">
    <path id="Path_51" data-name="Path 51" d="M6.1,5.263h5.741c0,.359.12.6.12.957A5.619,5.619,0,0,1,6.1,12.2,6.1,6.1,0,0,1,6.1,0a5.906,5.906,0,0,1,4.067,1.555L8.492,3.229A3.189,3.189,0,0,0,6.1,2.273,3.854,3.854,0,0,0,2.273,6.1,3.778,3.778,0,0,0,6.1,9.927,3.258,3.258,0,0,0,9.569,7.3H6.1Z" transform="translate(96.02 623)" fill="#e48646" fill-rule="evenodd"/>
    <g id="Ellipse_24" data-name="Ellipse 24" transform="translate(81 608)" fill="none" stroke="#e48646" stroke-width="2">
      <circle cx="21" cy="21" r="21" stroke="none"/>
      <circle cx="21" cy="21" r="20" fill="none"/>
    </g>
  </g>
</svg>
