<svg xmlns="http://www.w3.org/2000/svg" width="17.118" height="17.118" viewBox="0 0 17.118 17.118">
  <g id="Group_285" data-name="Group 285" transform="translate(63 -465.36)">
    <g id="Group_278" data-name="Group 278" transform="translate(-63 465.36)">
      <g id="Group_277" data-name="Group 277" transform="translate(0 0)">
        <path id="Path_221" data-name="Path 221" d="M-57.089,465.36h-3.932A1.982,1.982,0,0,0-63,467.339v3.932a1.982,1.982,0,0,0,1.979,1.979h3.932a1.982,1.982,0,0,0,1.979-1.979v-3.932A1.982,1.982,0,0,0-57.089,465.36Zm.642,5.911a.643.643,0,0,1-.642.642h-3.932a.643.643,0,0,1-.642-.642v-3.932a.643.643,0,0,1,.642-.642h3.932a.643.643,0,0,1,.642.642Z" transform="translate(63 -465.36)" fill="#727c8e"/>
      </g>
    </g>
    <g id="Group_280" data-name="Group 280" transform="translate(-53.772 465.36)">
      <g id="Group_279" data-name="Group 279" transform="translate(0 0)">
        <path id="Path_222" data-name="Path 222" d="M-32.664,465.36h-3.878a2.008,2.008,0,0,0-2.006,2.006v3.878a2.008,2.008,0,0,0,2.006,2.006h3.878a2.008,2.008,0,0,0,2.006-2.006v-3.878A2.009,2.009,0,0,0-32.664,465.36Zm.669,5.884a.669.669,0,0,1-.669.669h-3.878a.669.669,0,0,1-.668-.669v-3.878a.669.669,0,0,1,.668-.669h3.878a.67.67,0,0,1,.669.669Z" transform="translate(38.548 -465.36)" fill="#727c8e"/>
      </g>
    </g>
    <g id="Group_282" data-name="Group 282" transform="translate(-63 474.588)">
      <g id="Group_281" data-name="Group 281" transform="translate(0 0)">
        <path id="Path_223" data-name="Path 223" d="M-57.089,489.812h-3.932A1.982,1.982,0,0,0-63,491.791v3.931a1.982,1.982,0,0,0,1.979,1.979h3.932a1.982,1.982,0,0,0,1.979-1.979v-3.931A1.982,1.982,0,0,0-57.089,489.812Zm.642,5.911a.643.643,0,0,1-.642.642h-3.932a.643.643,0,0,1-.642-.642v-3.931a.643.643,0,0,1,.642-.642h3.932a.643.643,0,0,1,.642.642Z" transform="translate(63 -489.812)" fill="#727c8e"/>
      </g>
    </g>
    <g id="Group_284" data-name="Group 284" transform="translate(-53.772 474.588)">
      <g id="Group_283" data-name="Group 283" transform="translate(0 0)">
        <path id="Path_224" data-name="Path 224" d="M-32.664,489.812h-3.878a2.008,2.008,0,0,0-2.006,2.006V495.7a2.008,2.008,0,0,0,2.006,2.006h3.878a2.009,2.009,0,0,0,2.006-2.006v-3.878A2.008,2.008,0,0,0-32.664,489.812ZM-32,495.7a.669.669,0,0,1-.669.669h-3.878a.669.669,0,0,1-.668-.669v-3.878a.669.669,0,0,1,.668-.668h3.878a.669.669,0,0,1,.669.668Z" transform="translate(38.548 -489.812)" fill="#727c8e"/>
      </g>
    </g>
  </g>
</svg>
