<svg xmlns="http://www.w3.org/2000/svg" width="26.352" height="22.841" viewBox="0 0 26.352 22.841">
  <g id="Group_174" data-name="Group 174" transform="translate(242.46 -634.919)">
    <path id="Path_114" data-name="Path 114" d="M-224.132,649.882s-.771-.335-.454-1.776a14.3,14.3,0,0,0,.31-1.767,14.335,14.335,0,0,0-.31-1.764c-.317-1.44.454-1.777.454-1.777a9.3,9.3,0,0,0,1.459-.758l-.217-.188v-2.778a10.89,10.89,0,0,0-8.15-3.655,10.921,10.921,0,0,0-10.921,10.92,10.921,10.921,0,0,0,10.921,10.921,10.886,10.886,0,0,0,8.15-3.654v-2.778s.138-.122.217-.187A9.16,9.16,0,0,0-224.132,649.882Z" transform="translate(0)" fill="none" stroke="#727c8e" stroke-miterlimit="10" stroke-width="1"/>
    <g id="Path_115" data-name="Path 115" transform="translate(-2.508 -0.567)" fill="none" stroke-miterlimit="10">
      <path d="M-221.539,640.172a.3.3,0,0,1,.4-.108.292.292,0,0,1,.108.4.3.3,0,0,1-.4.109A.3.3,0,0,1-221.539,640.172Z" stroke="none"/>
      <path d="M -221.2820892333984 640.0243530273438 C -221.3838958740234 640.0243530273438 -221.4833068847656 640.07763671875 -221.53857421875 640.1722412109375 C -221.6201477050781 640.3143310546875 -221.5718994140625 640.4949951171875 -221.4307250976563 640.5765380859375 C -221.3845977783203 640.6032104492188 -221.3342437744141 640.6157836914063 -221.2845306396484 640.6157836914063 C -221.1820678710938 640.6157836914063 -221.0822296142578 640.562255859375 -221.0273132324219 640.4678344726563 C -220.9440002441406 640.3257446289063 -220.9922485351563 640.1450805664063 -221.1351623535156 640.0643920898438 C -221.1814270019531 640.0372314453125 -221.2320404052734 640.0243530273438 -221.2820892333984 640.0243530273438 M -221.2820892333984 639.7409057617188 C -221.18017578125 639.7409057617188 -221.0797576904297 639.7682495117188 -220.9916839599609 639.8199462890625 C -220.8601989746094 639.8941040039063 -220.7632598876953 640.018798828125 -220.7228698730469 640.168701171875 C -220.6823425292969 640.3190307617188 -220.7036285400391 640.4761962890625 -220.7827911376953 640.6112060546875 C -220.8859252929688 640.78857421875 -221.078369140625 640.8992919921875 -221.2845306396484 640.8992919921875 C -221.3854522705078 640.8992919921875 -221.4850463867188 640.87255859375 -221.5725708007813 640.8219604492188 C -221.8482666015625 640.6627197265625 -221.9433288574219 640.3079223632813 -221.7844085693359 640.0311279296875 C -221.679443359375 639.8513793945313 -221.4873809814453 639.7409057617188 -221.2820892333984 639.7409057617188 Z" stroke="none" fill="#727c8e"/>
    </g>
    <g id="Path_116" data-name="Path 116" transform="translate(-0.148 -1.783)" fill="none" stroke-miterlimit="10">
      <path d="M-240.314,650.459a.293.293,0,0,1-.4-.108.3.3,0,0,1,.105-.4.3.3,0,0,1,.405.108A.3.3,0,0,1-240.314,650.459Z" stroke="none"/>
      <path d="M -240.4603271484375 650.498046875 C -240.4104614257813 650.498046875 -240.3599395751953 650.4854125976563 -240.3138732910156 650.4586181640625 C -240.1718139648438 650.376220703125 -240.1235656738281 650.194580078125 -240.2042541503906 650.0552368164063 C -240.2588043212891 649.9601440429688 -240.3581237792969 649.90673828125 -240.46044921875 649.90673828125 C -240.5110473632813 649.90673828125 -240.5623931884766 649.9197998046875 -240.6094055175781 649.9473876953125 C -240.7497253417969 650.0280151367188 -240.7962036132813 650.2086181640625 -240.7146301269531 650.3507690429688 C -240.6616516113281 650.4450073242188 -240.5623474121094 650.498046875 -240.4603271484375 650.498046875 M -240.4603271484375 650.7815551757813 C -240.6683502197266 650.7815551757813 -240.8604583740234 650.6697387695313 -240.9617004394531 650.48974609375 C -241.1198425292969 650.2141723632813 -241.0256958007813 649.8596801757813 -240.7506408691406 649.7015991210938 C -240.6640777587891 649.6508178710938 -240.5629577636719 649.6232299804688 -240.46044921875 649.6232299804688 C -240.2537384033203 649.6232299804688 -240.0613708496094 649.7347412109375 -239.9584045410156 649.9141235351563 C -239.7994689941406 650.1885986328125 -239.8948822021484 650.5432739257813 -240.1716461181641 650.7037963867188 C -240.2590789794922 650.754638671875 -240.3589782714844 650.7815551757813 -240.4603271484375 650.7815551757813 Z" stroke="none" fill="#727c8e"/>
    </g>
    <g id="Path_117" data-name="Path 117" transform="translate(-0.182 -1.072)" fill="none" stroke-miterlimit="10">
      <path d="M-240.185,644.725a.3.3,0,0,1-.3-.3.3.3,0,0,1,.3-.295.294.294,0,0,1,.3.295A.3.3,0,0,1-240.185,644.725Z" stroke="none"/>
      <path d="M -240.1854858398438 644.7249755859375 C -240.0215148925781 644.7249755859375 -239.8899536132813 644.5908813476563 -239.8899536132813 644.4276733398438 C -239.8899536132813 644.2645263671875 -240.0215148925781 644.1329956054688 -240.1854858398438 644.1329956054688 C -240.3486022949219 644.1329956054688 -240.4810180664063 644.2645263671875 -240.4810180664063 644.4276733398438 C -240.4810180664063 644.5908813476563 -240.3486022949219 644.7249755859375 -240.1854858398438 644.7249755859375 M -240.1854858398438 645.0084228515625 C -240.5047454833984 645.0084228515625 -240.7644805908203 644.7479248046875 -240.7644805908203 644.4276733398438 C -240.7644805908203 644.10888671875 -240.5047454833984 643.8495483398438 -240.1854858398438 643.8495483398438 C -239.8662261962891 643.8495483398438 -239.6064910888672 644.10888671875 -239.6064910888672 644.4276733398438 C -239.6064910888672 644.7479248046875 -239.8662261962891 645.0084228515625 -240.1854858398438 645.0084228515625 Z" stroke="none" fill="#727c8e"/>
    </g>
    <g id="Path_118" data-name="Path 118" transform="translate(-0.295 -1.313)" fill="none" stroke-miterlimit="10">
      <path d="M-239.266,646.675a.3.3,0,0,1-.3-.3.3.3,0,0,1,.3-.295.294.294,0,0,1,.295.295A.3.3,0,0,1-239.266,646.675Z" stroke="none"/>
      <path d="M -239.2656097412109 646.6752319335938 C -239.1024932861328 646.6752319335938 -238.9709625244141 646.5427856445313 -238.9709625244141 646.3797607421875 C -238.9709625244141 646.2157592773438 -239.1024932861328 646.0850830078125 -239.2656097412109 646.0850830078125 C -239.4287261962891 646.0850830078125 -239.5619964599609 646.2157592773438 -239.5619964599609 646.3797607421875 C -239.5619964599609 646.5427856445313 -239.4287261962891 646.6752319335938 -239.2656097412109 646.6752319335938 M -239.2656097412109 646.9586791992188 C -239.5853424072266 646.9586791992188 -239.845458984375 646.698974609375 -239.845458984375 646.3797607421875 C -239.845458984375 646.0609741210938 -239.5853424072266 645.8016357421875 -239.2656097412109 645.8016357421875 C -238.9468383789063 645.8016357421875 -238.6875 646.0609741210938 -238.6875 646.3797607421875 C -238.6875 646.698974609375 -238.9468383789063 646.9586791992188 -239.2656097412109 646.9586791992188 Z" stroke="none" fill="#727c8e"/>
    </g>
    <g id="Path_119" data-name="Path 119" transform="translate(-0.366 -1.934)" fill="none" stroke-miterlimit="10">
      <path d="M-238.543,651.69a.293.293,0,0,1-.4-.108.3.3,0,0,1,.107-.406.3.3,0,0,1,.4.109A.3.3,0,0,1-238.543,651.69Z" stroke="none"/>
      <path d="M -238.6903381347656 651.729736328125 C -238.6402435302734 651.729736328125 -238.5894927978516 651.716796875 -238.5430755615234 651.6895141601563 C -238.4018707275391 651.6053466796875 -238.3518829345703 651.4263916015625 -238.4343109130859 651.2843627929688 C -238.4898071289063 651.1898803710938 -238.5890197753906 651.1367797851563 -238.6915588378906 651.1367797851563 C -238.7413177490234 651.1367797851563 -238.7918853759766 651.1492919921875 -238.8385772705078 651.1756591796875 C -238.9788970947266 651.2571411132813 -239.0271453857422 651.438720703125 -238.9455718994141 651.5816650390625 C -238.8904113769531 651.6766967773438 -238.7916870117188 651.729736328125 -238.6903381347656 651.729736328125 M -238.6903381347656 652.0132446289063 C -238.8954467773438 652.0132446289063 -239.0871887207031 651.9024047851563 -239.1907348632813 651.7239379882813 C -239.3499298095703 651.4450073242188 -239.2553405761719 651.0899047851563 -238.9809112548828 650.9305419921875 C -238.8905181884766 650.8794555664063 -238.7914581298828 650.853271484375 -238.6915588378906 650.853271484375 C -238.4862823486328 650.853271484375 -238.2940521240234 650.9634399414063 -238.1898956298828 651.1408081054688 C -238.0306854248047 651.4151000976563 -238.1243438720703 651.7699584960938 -238.39794921875 651.9329833984375 C -238.4877624511719 651.9857788085938 -238.5883483886719 652.0132446289063 -238.6903381347656 652.0132446289063 Z" stroke="none" fill="#727c8e"/>
    </g>
    <g id="Path_120" data-name="Path 120" transform="translate(-2.368 -0.984)" fill="none" stroke-miterlimit="10">
      <path d="M-222.569,643.457a.3.3,0,0,1,.405.11.293.293,0,0,1-.108.4.293.293,0,0,1-.4-.108A.3.3,0,0,1-222.569,643.457Z" stroke="none"/>
      <path d="M -222.4208984375 643.4179077148438 C -222.4708251953125 643.4179077148438 -222.5215759277344 643.4306030273438 -222.5685119628906 643.4574584960938 C -222.7079467773438 643.5399780273438 -222.7570190429688 643.7213745117188 -222.6737365722656 643.8617553710938 C -222.6197509765625 643.9568481445313 -222.5210266113281 644.0098876953125 -222.4192962646484 644.0098876953125 C -222.3689880371094 644.0098876953125 -222.3179321289063 643.9968872070313 -222.2712097167969 643.9696044921875 C -222.1291198730469 643.890625 -222.081787109375 643.7073974609375 -222.163330078125 643.567138671875 C -222.2182922363281 643.4720458984375 -222.3178100585938 643.4179077148438 -222.4208984375 643.4179077148438 M -222.4208984375 643.1343994140625 C -222.2143096923828 643.1343994140625 -222.0215759277344 643.2459106445313 -221.9178924560547 643.4253540039063 C -221.8407287597656 643.5580444335938 -221.8197937011719 643.7200317382813 -221.8608093261719 643.8692016601563 C -221.9017333984375 644.0179443359375 -221.9976196289063 644.1409912109375 -222.1309967041016 644.2159423828125 C -222.2187957763672 644.2666015625 -222.3184051513672 644.2933349609375 -222.4192962646484 644.2933349609375 C -222.6255035400391 644.2933349609375 -222.81689453125 644.1823120117188 -222.9192657470703 644.00341796875 C -222.9962463378906 643.8719482421875 -223.0177459716797 643.7180786132813 -222.9797973632813 643.5697021484375 C -222.9412689208984 643.4190673828125 -222.8464660644531 643.2926025390625 -222.712890625 643.2135009765625 C -222.6213684082031 643.1610717773438 -222.5216064453125 643.1343994140625 -222.4208984375 643.1343994140625 Z" stroke="none" fill="#727c8e"/>
    </g>
    <g id="Path_121" data-name="Path 121" transform="translate(-2.244 -0.545)" fill="none" stroke-miterlimit="10">
      <path d="M-223.689,639.991a.3.3,0,0,1,.4-.108.3.3,0,0,1,.109.4.3.3,0,0,1-.4.111A.3.3,0,0,1-223.689,639.991Z" stroke="none"/>
      <path d="M -223.4307861328125 639.8446655273438 C -223.5334625244141 639.8446655273438 -223.6336364746094 639.8976440429688 -223.6885375976563 639.9913940429688 C -223.7700805664063 640.13525390625 -223.7209777832031 640.3150024414063 -223.5789184570313 640.3973999023438 C -223.53369140625 640.4232788085938 -223.4841461181641 640.4356079101563 -223.4349670410156 640.4356079101563 C -223.3325500488281 640.4356079101563 -223.2318115234375 640.382080078125 -223.175537109375 640.2861328125 C -223.0939636230469 640.1483764648438 -223.1421813964844 639.9651489257813 -223.2842712402344 639.883544921875 C -223.3304290771484 639.857177734375 -223.3809051513672 639.8446655273438 -223.4307861328125 639.8446655273438 M -223.4307861328125 639.5612182617188 C -223.3302154541016 639.5612182617188 -223.23095703125 639.5875854492188 -223.1437072753906 639.6373901367188 C -223.0078430175781 639.7153930664063 -222.9114074707031 639.841552734375 -222.8715667724609 639.9928588867188 C -222.8320465087891 640.1430053710938 -222.8533782958984 640.2984619140625 -222.9316253662109 640.4306030273438 C -223.0357360839844 640.608154296875 -223.2288360595703 640.7190551757813 -223.4349670410156 640.7190551757813 C -223.5348052978516 640.7190551757813 -223.6332855224609 640.6929321289063 -223.7197875976563 640.6433715820313 C -223.9960021972656 640.4832153320313 -224.0919952392578 640.1283569335938 -223.9351501464844 639.8516235351563 C -223.8295288085938 639.6712036132813 -223.6370391845703 639.5612182617188 -223.4307861328125 639.5612182617188 Z" stroke="none" fill="#727c8e"/>
    </g>
    <g id="Path_122" data-name="Path 122" transform="translate(-1.998 -0.614)" fill="none" stroke-miterlimit="10">
      <path d="M-225.687,640.554a.291.291,0,0,1,.4-.107.3.3,0,0,1,.109.4.3.3,0,0,1-.4.107A.3.3,0,0,1-225.687,640.554Z" stroke="none"/>
      <path d="M -225.4329376220703 640.4059448242188 C -225.5347900390625 640.4059448242188 -225.6339874267578 640.4594116210938 -225.6866760253906 640.5542602539063 C -225.7691345214844 640.6954345703125 -225.7217712402344 640.8760375976563 -225.5797119140625 640.9585571289063 C -225.5334625244141 640.9855346679688 -225.48291015625 640.9982299804688 -225.4329376220703 640.9982299804688 C -225.3303375244141 640.9982299804688 -225.2302856445313 640.9447021484375 -225.1754455566406 640.8514404296875 C -225.0938720703125 640.70849609375 -225.1430053710938 640.5278930664063 -225.2841796875 640.4472045898438 C -225.3308258056641 640.419189453125 -225.3822021484375 640.4059448242188 -225.4329376220703 640.4059448242188 M -225.4329376220703 640.1224975585938 C -225.3302001953125 640.1224975585938 -225.2292785644531 640.1502075195313 -225.140869140625 640.20263671875 C -224.8661651611328 640.3615112304688 -224.7711639404297 640.7149047851563 -224.9292449951172 640.991943359375 C -225.0350494384766 641.171875 -225.2273406982422 641.2816772460938 -225.4329376220703 641.2816772460938 C -225.5346221923828 641.2816772460938 -225.6347808837891 641.254638671875 -225.7225799560547 641.203369140625 C -225.8563232421875 641.1256713867188 -225.9519958496094 641.0003662109375 -225.9914703369141 640.8507080078125 C -226.0307159423828 640.7020263671875 -226.0098571777344 640.546875 -225.9327392578125 640.4135131835938 C -225.8315124511719 640.23388671875 -225.6403350830078 640.1224975585938 -225.4329376220703 640.1224975585938 Z" stroke="none" fill="#727c8e"/>
    </g>
    <g id="Path_123" data-name="Path 123" transform="translate(-1.91 -0.182)" fill="none" stroke-miterlimit="10">
      <path d="M-226.144,636.9a.294.294,0,0,1,.293.3.293.293,0,0,1-.293.295.3.3,0,0,1-.3-.295A.3.3,0,0,1-226.144,636.9Z" stroke="none"/>
      <path d="M -226.1438293457031 636.8980102539063 C -226.3087158203125 636.8980102539063 -226.4420166015625 637.0303955078125 -226.4420166015625 637.1943969726563 C -226.4420166015625 637.3575439453125 -226.3087158203125 637.4890747070313 -226.1438293457031 637.4890747070313 C -225.9816284179688 637.4890747070313 -225.8509521484375 637.3575439453125 -225.8509521484375 637.1943969726563 C -225.8509521484375 637.0303955078125 -225.9816284179688 636.8980102539063 -226.1438293457031 636.8980102539063 M -226.1438293457031 636.6145629882813 C -225.8260345458984 636.6145629882813 -225.5674896240234 636.8746337890625 -225.5674896240234 637.1943969726563 C -225.5674896240234 637.51318359375 -225.8260345458984 637.7725219726563 -226.1438293457031 637.7725219726563 C -226.4645538330078 637.7725219726563 -226.7254791259766 637.51318359375 -226.7254791259766 637.1943969726563 C -226.7254791259766 636.8746337890625 -226.4645538330078 636.6145629882813 -226.1438293457031 636.6145629882813 Z" stroke="none" fill="#727c8e"/>
    </g>
    <g id="Path_124" data-name="Path 124" transform="translate(-1.67 -0.295)" fill="none" stroke-miterlimit="10">
      <path d="M-228.1,637.816a.3.3,0,0,1,.3.3.3.3,0,0,1-.3.295.3.3,0,0,1-.295-.295A.3.3,0,0,1-228.1,637.816Z" stroke="none"/>
      <path d="M -228.0973510742188 637.8159790039063 C -228.2595825195313 637.8159790039063 -228.3919982910156 637.9483642578125 -228.3919982910156 638.1124267578125 C -228.3919982910156 638.2755126953125 -228.2595825195313 638.4070434570313 -228.0973510742188 638.4070434570313 C -227.9333801269531 638.4070434570313 -227.800048828125 638.2755126953125 -227.800048828125 638.1124267578125 C -227.800048828125 637.9483642578125 -227.9333801269531 637.8159790039063 -228.0973510742188 637.8159790039063 M -228.0973510742188 637.5325317382813 C -227.7771301269531 637.5325317382813 -227.5165863037109 637.7926635742188 -227.5165863037109 638.1124267578125 C -227.5165863037109 638.43115234375 -227.7771301269531 638.6904907226563 -228.0973510742188 638.6904907226563 C -228.4161224365234 638.6904907226563 -228.6754608154297 638.43115234375 -228.6754608154297 638.1124267578125 C -228.6754608154297 637.7926635742188 -228.4161224365234 637.5325317382813 -228.0973510742188 637.5325317382813 Z" stroke="none" fill="#727c8e"/>
    </g>
    <g id="Path_125" data-name="Path 125" transform="translate(-1.491 -0.478)" fill="none" stroke-miterlimit="10">
      <path d="M-229.549,639.3a.3.3,0,0,1,.3.3.3.3,0,0,1-.3.3.3.3,0,0,1-.3-.3A.3.3,0,0,1-229.549,639.3Z" stroke="none"/>
      <path d="M -229.5485076904297 639.302001953125 C -229.7107086181641 639.302001953125 -229.8440093994141 639.435302734375 -229.8440093994141 639.5993041992188 C -229.8440093994141 639.7615356445313 -229.7107086181641 639.895751953125 -229.5485076904297 639.895751953125 C -229.3853912353516 639.895751953125 -229.2520904541016 639.7615356445313 -229.2520904541016 639.5993041992188 C -229.2520904541016 639.435302734375 -229.3853912353516 639.302001953125 -229.5485076904297 639.302001953125 M -229.5485076904297 639.0185546875 C -229.228759765625 639.0185546875 -228.9686279296875 639.279052734375 -228.9686279296875 639.5993041992188 C -228.9686279296875 639.9190673828125 -229.228759765625 640.17919921875 -229.5485076904297 640.17919921875 C -229.8677520751953 640.17919921875 -230.1274719238281 639.9190673828125 -230.1274719238281 639.5993041992188 C -230.1274719238281 639.279052734375 -229.8677520751953 639.0185546875 -229.5485076904297 639.0185546875 Z" stroke="none" fill="#727c8e"/>
    </g>
    <g id="Path_126" data-name="Path 126" transform="translate(-1.199 -0.148)" fill="none" stroke-miterlimit="10">
      <path d="M-232.067,636.661a.3.3,0,0,1,.4.107.3.3,0,0,1-.109.405.293.293,0,0,1-.4-.109A.294.294,0,0,1-232.067,636.661Z" stroke="none"/>
      <path d="M -231.9198760986328 636.6220092773438 C -231.9698028564453 636.6220092773438 -232.0203857421875 636.6347045898438 -232.0668029785156 636.6614990234375 C -232.2088317871094 636.7431030273438 -232.2571105957031 636.9246215820313 -232.1746520996094 637.0648803710938 C -232.1200561523438 637.16064453125 -232.0214385986328 637.2135009765625 -231.9198303222656 637.2135009765625 C -231.8696746826172 637.2135009765625 -231.8187866210938 637.2006225585938 -231.7721252441406 637.1736450195313 C -231.6300659179688 637.0921020507813 -231.5827331542969 636.9122924804688 -231.6633911132813 636.7684326171875 C -231.7187194824219 636.6749267578125 -231.8179168701172 636.6220092773438 -231.9198760986328 636.6220092773438 M -231.9198760986328 636.3385620117188 C -231.7153778076172 636.3385620117188 -231.5236206054688 636.4479370117188 -231.4194183349609 636.6240844726563 L -231.4177551269531 636.626953125 L -231.4161376953125 636.6298217773438 C -231.2602844238281 636.9077758789063 -231.3566741943359 637.2620239257813 -231.6310119628906 637.4194946289063 C -231.7184295654297 637.4700317382813 -231.8185577392578 637.4969482421875 -231.9198150634766 637.4969482421875 C -232.1263122558594 637.4969482421875 -232.3183135986328 637.3851928710938 -232.4208984375 637.205322265625 C -232.4974517822266 637.0751342773438 -232.5187835693359 636.9190673828125 -232.4790649414063 636.7691650390625 C -232.4392395019531 636.6187744140625 -232.3429718017578 636.4932250976563 -232.2080078125 636.4157104492188 C -232.1208038330078 636.3653564453125 -232.0209655761719 636.3385620117188 -231.9198760986328 636.3385620117188 Z" stroke="none" fill="#727c8e"/>
    </g>
    <g id="Path_127" data-name="Path 127" transform="translate(-1.048 -0.366)" fill="none" stroke-miterlimit="10">
      <path d="M-233.3,638.432a.3.3,0,0,1,.4.11.3.3,0,0,1-.108.4.3.3,0,0,1-.4-.109A.3.3,0,0,1-233.3,638.432Z" stroke="none"/>
      <path d="M -233.1511993408203 638.3931884765625 C -233.2009735107422 638.3931884765625 -233.2514343261719 638.4056396484375 -233.2977600097656 638.431640625 C -233.4389343261719 638.5149536132813 -233.4880676269531 638.6956176757813 -233.4056396484375 638.8358764648438 C -233.3515167236328 638.93115234375 -233.2520446777344 638.9846801757813 -233.1495361328125 638.9846801757813 C -233.0991973876953 638.9846801757813 -233.0481262207031 638.9717407226563 -233.0013427734375 638.944580078125 C -232.8610534667969 638.8621826171875 -232.8119201660156 638.6824340820313 -232.8934936523438 638.541259765625 C -232.9484405517578 638.4461059570313 -233.0483703613281 638.3931884765625 -233.1511993408203 638.3931884765625 M -233.1511993408203 638.1097412109375 C -232.9440460205078 638.1097412109375 -232.7512512207031 638.2207641601563 -232.6480255126953 638.3994750976563 C -232.4895477294922 638.6737670898438 -232.5836181640625 639.0279541015625 -232.8577880859375 639.1890258789063 C -232.9473114013672 639.2410278320313 -233.0477752685547 639.2681274414063 -233.1495361328125 639.2681274414063 C -233.357177734375 639.2681274414063 -233.5497589111328 639.1561279296875 -233.6521301269531 638.975830078125 C -233.8110198974609 638.70556640625 -233.7176208496094 638.3502807617188 -233.4418334960938 638.1875 L -233.439208984375 638.1859741210938 L -233.4365386962891 638.1844482421875 C -233.3494873046875 638.1356201171875 -233.2508087158203 638.1097412109375 -233.1511993408203 638.1097412109375 Z" stroke="none" fill="#727c8e"/>
    </g>
    <g id="Path_128" data-name="Path 128" transform="translate(-0.985 -0.614)" fill="none" stroke-miterlimit="10">
      <path d="M-233.812,640.447a.294.294,0,0,1,.405.107.3.3,0,0,1-.108.4.3.3,0,0,1-.405-.107A.3.3,0,0,1-233.812,640.447Z" stroke="none"/>
      <path d="M -233.6620788574219 640.4059448242188 C -233.712890625 640.4059448242188 -233.7644805908203 640.419189453125 -233.8117065429688 640.4472045898438 C -233.952880859375 640.5278930664063 -234.0011596679688 640.70849609375 -233.9195861816406 640.8514404296875 C -233.8659210205078 640.9447021484375 -233.7658538818359 640.9982299804688 -233.6625823974609 640.9982299804688 C -233.6123046875 640.9982299804688 -233.5612487792969 640.9855346679688 -233.5144348144531 640.9585571289063 C -233.3741149902344 640.8760375976563 -233.3267517089844 640.6954345703125 -233.4065551757813 640.5542602539063 C -233.4610137939453 640.4594116210938 -233.5599975585938 640.4059448242188 -233.6620788574219 640.4059448242188 M -233.6620788574219 640.1224975585938 C -233.4557647705078 640.1224975585938 -233.2636566162109 640.2338256835938 -233.1607208251953 640.4130859375 C -233.0044403076172 640.6895751953125 -233.0990905761719 641.0431518554688 -233.3707427978516 641.202880859375 C -233.4609069824219 641.2548828125 -233.5610809326172 641.2816772460938 -233.6625823974609 641.2816772460938 C -233.8701019287109 641.2816772460938 -234.0627288818359 641.1710205078125 -234.165283203125 640.9928588867188 C -234.3244781494141 640.7138061523438 -234.2287292480469 640.3590698242188 -233.9523620605469 640.2011108398438 C -233.8670196533203 640.1504516601563 -233.7652893066406 640.1224975585938 -233.6620788574219 640.1224975585938 Z" stroke="none" fill="#727c8e"/>
    </g>
    <g id="Path_129" data-name="Path 129" transform="translate(-0.614 -0.984)" fill="none" stroke-miterlimit="10">
      <path d="M-236.527,643.457a.3.3,0,0,1,.107.4.3.3,0,0,1-.4.109.293.293,0,0,1-.107-.4A.3.3,0,0,1-236.527,643.457Z" stroke="none"/>
      <path d="M -236.6741943359375 643.4179077148438 C -236.7768096923828 643.4179077148438 -236.8761444091797 643.4720458984375 -236.9316711425781 643.567138671875 C -237.0140991210938 643.7073974609375 -236.9667663574219 643.890625 -236.82470703125 643.970458984375 C -236.7779083251953 643.997314453125 -236.72705078125 644.0101318359375 -236.6769104003906 644.0101318359375 C -236.5747985839844 644.0101318359375 -236.4757232666016 643.95703125 -236.4204406738281 643.8617553710938 C -236.3388671875 643.7213745117188 -236.38623046875 643.5399780273438 -236.5274047851563 643.4574584960938 C -236.5740509033203 643.4306030273438 -236.6244964599609 643.4179077148438 -236.6741943359375 643.4179077148438 M -236.6741943359375 643.1343994140625 C -236.5734405517578 643.1343994140625 -236.4737243652344 643.1611938476563 -236.3858184814453 643.2119140625 C -236.1090393066406 643.3736572265625 -236.0152740478516 643.7286987304688 -236.1753692626953 644.0042114257813 C -236.2788696289063 644.1826171875 -236.4710998535156 644.2935791015625 -236.6769104003906 644.2935791015625 C -236.7778472900391 644.2935791015625 -236.8777770996094 644.266845703125 -236.9658355712891 644.21630859375 C -237.0984191894531 644.1417846679688 -237.1949920654297 644.0173950195313 -237.2355499267578 643.8671875 C -237.2758178710938 643.7180786132813 -237.2541351318359 643.5563354492188 -237.1760559082031 643.4235229492188 C -237.0720977783203 643.2454833984375 -236.879638671875 643.1343994140625 -236.6741943359375 643.1343994140625 Z" stroke="none" fill="#727c8e"/>
    </g>
    <g id="Path_130" data-name="Path 130" transform="translate(-0.567 -0.474)" fill="none" stroke-miterlimit="10">
      <path d="M-237.315,639.418a.3.3,0,0,1,.4-.109.294.294,0,0,1,.107.4.294.294,0,0,1-.4.108A.3.3,0,0,1-237.315,639.418Z" stroke="none"/>
      <path d="M -237.0574340820313 639.2695922851563 C -237.1597595214844 639.2695922851563 -237.2591400146484 639.3233642578125 -237.3145599365234 639.418212890625 C -237.3961029052734 639.5584716796875 -237.3469696044922 639.7400512695313 -237.2066802978516 639.8207397460938 C -237.1598663330078 639.847900390625 -237.1088714599609 639.8607788085938 -237.0586242675781 639.8607788085938 C -236.9564208984375 639.8607788085938 -236.8573760986328 639.8074951171875 -236.8032989501953 639.712890625 C -236.7199859619141 639.5716552734375 -236.7690887451172 639.3909912109375 -236.9102935791016 639.3094482421875 C -236.9568786621094 639.2824096679688 -237.0075073242188 639.2695922851563 -237.0574340820313 639.2695922851563 M -237.0574340820313 638.9861450195313 C -236.9561309814453 638.9861450195313 -236.8560485839844 639.01318359375 -236.7679901123047 639.0642700195313 C -236.6336975097656 639.141845703125 -236.5376586914063 639.2675170898438 -236.4981384277344 639.4178466796875 C -236.4587860107422 639.5675659179688 -236.4804382324219 639.7235107421875 -236.5591278076172 639.85693359375 C -236.6596984863281 640.0328369140625 -236.8518218994141 640.1442260742188 -237.0586242675781 640.1442260742188 C -237.1602172851563 640.1442260742188 -237.2605895996094 640.1171875 -237.348876953125 640.0659790039063 C -237.4819183349609 639.9894409179688 -237.5777282714844 639.864501953125 -237.6177825927734 639.714599609375 C -237.6577758789063 639.5648803710938 -237.6371307373047 639.4090576171875 -237.5596313476563 639.2757568359375 C -237.4551696777344 639.096923828125 -237.2628479003906 638.9861450195313 -237.0574340820313 638.9861450195313 Z" stroke="none" fill="#727c8e"/>
    </g>
    <g id="Path_131" data-name="Path 131" transform="translate(-0.474 -2.415)" fill="none" stroke-miterlimit="10">
      <path d="M-237.557,655.49a.3.3,0,0,1-.4.108.3.3,0,0,1-.109-.4.294.294,0,0,1,.4-.107A.294.294,0,0,1-237.557,655.49Z" stroke="none"/>
      <path d="M -237.8150177001953 655.636474609375 C -237.7128448486328 655.636474609375 -237.6128997802734 655.5835571289063 -237.5574188232422 655.48974609375 C -237.4758758544922 655.3467407226563 -237.5232086181641 655.1679077148438 -237.6652984619141 655.0863647460938 C -237.7124481201172 655.058837890625 -237.7639770507813 655.045654296875 -237.8147888183594 655.045654296875 C -237.9161682128906 655.045654296875 -238.0146636962891 655.0980834960938 -238.0695648193359 655.1932983398438 C -238.1511077880859 655.33447265625 -238.1028900146484 655.5159912109375 -237.9608306884766 655.5975952148438 C -237.9149169921875 655.6239624023438 -237.8647155761719 655.636474609375 -237.8150177001953 655.636474609375 M -237.8150177001953 655.919921875 C -237.9156341552734 655.919921875 -238.0148773193359 655.8934936523438 -238.1020660400391 655.8433837890625 C -238.236328125 655.7662353515625 -238.3324584960938 655.641357421875 -238.3726959228516 655.49169921875 C -238.4129791259766 655.3419799804688 -238.3925018310547 655.1856689453125 -238.3150177001953 655.051513671875 C -238.2121887207031 654.8731079101563 -238.0204467773438 654.76220703125 -237.8147888183594 654.76220703125 C -237.7123870849609 654.76220703125 -237.6112670898438 654.7896728515625 -237.5223541259766 654.8416137695313 C -237.2486267089844 654.9986572265625 -237.1530609130859 655.3529052734375 -237.3111877441406 655.6301879882813 C -237.4177093505859 655.8103637695313 -237.6099090576172 655.919921875 -237.8150177001953 655.919921875 Z" stroke="none" fill="#727c8e"/>
    </g>
    <g id="Path_132" data-name="Path 132" transform="translate(-0.478 -1.491)" fill="none" stroke-miterlimit="10">
      <path d="M-237.78,648.127a.294.294,0,0,1-.293-.3.294.294,0,0,1,.293-.295.3.3,0,0,1,.3.295A.3.3,0,0,1-237.78,648.127Z" stroke="none"/>
      <path d="M -237.7801055908203 648.126953125 C -237.6161346435547 648.126953125 -237.4837188720703 647.9954223632813 -237.4837188720703 647.8296508789063 C -237.4837188720703 647.6674194335938 -237.6161346435547 647.5349731445313 -237.7801055908203 647.5349731445313 C -237.9423370361328 647.5349731445313 -238.0730133056641 647.6674194335938 -238.0730133056641 647.8296508789063 C -238.0730133056641 647.9954223632813 -237.9423370361328 648.126953125 -237.7801055908203 648.126953125 M -237.7801055908203 648.410400390625 C -238.0979156494141 648.410400390625 -238.3564758300781 648.14990234375 -238.3564758300781 647.8296508789063 C -238.3564758300781 647.5108642578125 -238.0979156494141 647.2515258789063 -237.7801055908203 647.2515258789063 C -237.4603729248047 647.2515258789063 -237.2002563476563 647.5108642578125 -237.2002563476563 647.8296508789063 C -237.2002563476563 648.14990234375 -237.4603729248047 648.410400390625 -237.7801055908203 648.410400390625 Z" stroke="none" fill="#727c8e"/>
    </g>
    <g id="Path_133" data-name="Path 133" transform="translate(-0.545 -0.738)" fill="none" stroke-miterlimit="10">
      <path d="M-237.385,641.971a.3.3,0,0,1-.109-.4.294.294,0,0,1,.4-.109.294.294,0,0,1,.11.4A.3.3,0,0,1-237.385,641.971Z" stroke="none"/>
      <path d="M -237.2393798828125 642.01025390625 C -237.1369323730469 642.01025390625 -237.0370483398438 641.95654296875 -236.9814758300781 641.860107421875 C -236.9007568359375 641.7224731445313 -236.9490051269531 641.5408935546875 -237.0919494628906 641.45849609375 C -237.1378479003906 641.4319458007813 -237.1881103515625 641.4192504882813 -237.2378387451172 641.4192504882813 C -237.3391876220703 641.4192504882813 -237.4382934570313 641.471923828125 -237.4935913085938 641.5672607421875 C -237.5751342773438 641.70849609375 -237.5277709960938 641.8908081054688 -237.3848571777344 641.9714965820313 C -237.3388824462891 641.9977416992188 -237.2888336181641 642.01025390625 -237.2393798828125 642.01025390625 M -237.2393798828125 642.293701171875 C -237.33935546875 642.293701171875 -237.4382781982422 642.2673950195313 -237.5254211425781 642.2176513671875 C -237.6588745117188 642.142333984375 -237.7555084228516 642.0181274414063 -237.7963409423828 641.86865234375 C -237.8374633789063 641.7180786132813 -237.817138671875 641.5607299804688 -237.7390899658203 641.425537109375 C -237.6352691650391 641.24658203125 -237.4433288574219 641.1358032226563 -237.2378387451172 641.1358032226563 C -237.1369781494141 641.1358032226563 -237.0374298095703 641.1625366210938 -236.9499816894531 641.213134765625 C -236.8148345947266 641.291015625 -236.7182006835938 641.4171752929688 -236.6782684326172 641.568115234375 C -236.6388397216797 641.7171020507813 -236.65966796875 641.8717651367188 -236.7369689941406 642.0035400390625 C -236.8396606445313 642.1818237304688 -237.0326080322266 642.293701171875 -237.2393798828125 642.293701171875 Z" stroke="none" fill="#727c8e"/>
    </g>
    <g id="Path_134" data-name="Path 134" transform="translate(-0.614 -1.998)" fill="none" stroke-miterlimit="10">
      <path d="M-236.527,652.2a.3.3,0,0,1-.4-.109.292.292,0,0,1,.107-.4.3.3,0,0,1,.4.107A.3.3,0,0,1-236.527,652.2Z" stroke="none"/>
      <path d="M -236.6760406494141 652.2425537109375 C -236.6257629394531 652.2425537109375 -236.5746154785156 652.2296752929688 -236.5274047851563 652.2027587890625 C -236.38623046875 652.1211547851563 -236.3388671875 651.94140625 -236.4204406738281 651.7984619140625 C -236.4757537841797 651.7048950195313 -236.5749053955078 651.6519775390625 -236.6770782470703 651.6519775390625 C -236.7271575927734 651.6519775390625 -236.7779693603516 651.6646728515625 -236.82470703125 651.6915283203125 C -236.9667663574219 651.7713012695313 -237.0140991210938 651.9527587890625 -236.9316711425781 652.093994140625 C -236.87646484375 652.189697265625 -236.7780151367188 652.2425537109375 -236.6760406494141 652.2425537109375 M -236.6760406494141 652.5260009765625 C -236.8818359375 652.5260009765625 -237.0738677978516 652.4147338867188 -237.1772003173828 652.2356567382813 C -237.2554473876953 652.1016235351563 -237.2763519287109 651.944091796875 -237.2353668212891 651.7933349609375 C -237.1947631835938 651.6439819335938 -237.0982055664063 651.52001953125 -236.9634857177734 651.4443969726563 C -236.8779144287109 651.3952026367188 -236.7780456542969 651.3685302734375 -236.6770782470703 651.3685302734375 C -236.472412109375 651.3685302734375 -236.2805786132813 651.47802734375 -236.1764068603516 651.6542358398438 C -236.0161590576172 651.9349365234375 -236.1109466552734 652.2894287109375 -236.3855285644531 652.4481811523438 C -236.4753570556641 652.4993896484375 -236.5753021240234 652.5260009765625 -236.6760406494141 652.5260009765625 Z" stroke="none" fill="#727c8e"/>
    </g>
    <g id="Path_135" data-name="Path 135" transform="translate(-0.738 -2.437)" fill="none" stroke-miterlimit="10">
      <path d="M-235.407,655.669a.294.294,0,0,1-.405.107.293.293,0,0,1-.107-.4.292.292,0,0,1,.4-.109A.3.3,0,0,1-235.407,655.669Z" stroke="none"/>
      <path d="M -235.6608734130859 655.816650390625 C -235.5596160888672 655.816650390625 -235.4619293212891 655.764404296875 -235.4065399169922 655.6688232421875 C -235.3249969482422 655.5266723632813 -235.3758697509766 655.3460083007813 -235.5179290771484 655.2644653320313 C -235.5635528564453 655.2376098632813 -235.6138000488281 655.224853515625 -235.6636047363281 655.224853515625 C -235.7650604248047 655.224853515625 -235.8645629882813 655.2778930664063 -235.9186859130859 655.3731689453125 C -236.0011138916016 655.5135498046875 -235.9537811279297 655.6941528320313 -235.8117218017578 655.7757568359375 C -235.7638244628906 655.8034057617188 -235.7118988037109 655.816650390625 -235.6608734130859 655.816650390625 M -235.6608734130859 656.10009765625 C -235.7628479003906 656.10009765625 -235.8639831542969 656.0728759765625 -235.953369140625 656.0213012695313 C -236.0875854492188 655.9442138671875 -236.1836242675781 655.819091796875 -236.2233428955078 655.6693115234375 C -236.2630615234375 655.51953125 -236.2416687011719 655.3634033203125 -236.1631317138672 655.2296142578125 C -236.0629119873047 655.0531616210938 -235.8707275390625 654.94140625 -235.6636047363281 654.94140625 C -235.5618286132813 654.94140625 -235.4617309570313 654.9686279296875 -235.3741455078125 655.0202026367188 C -235.0988616943359 655.1781616210938 -235.0018920898438 655.5330810546875 -235.1606597900391 655.8098754882813 C -235.2646026611328 655.9893188476563 -235.4560394287109 656.10009765625 -235.6608734130859 656.10009765625 Z" stroke="none" fill="#727c8e"/>
    </g>
    <g id="Path_136" data-name="Path 136" transform="translate(-0.985 -2.368)" fill="none" stroke-miterlimit="10">
      <path d="M-233.407,655.107a.3.3,0,0,1-.405.108.3.3,0,0,1-.108-.4.3.3,0,0,1,.405-.108A.3.3,0,0,1-233.407,655.107Z" stroke="none"/>
      <path d="M -233.6622772216797 655.2552490234375 C -233.5601501464844 655.2552490234375 -233.4610443115234 655.202392578125 -233.4065551757813 655.1068725585938 C -233.3267517089844 654.9657592773438 -233.3741149902344 654.7842407226563 -233.5144348144531 654.7034912109375 C -233.5613555908203 654.6767578125 -233.6125183105469 654.6640625 -233.6629180908203 654.6640625 C -233.7660675048828 654.6640625 -233.8659820556641 654.7171630859375 -233.9195861816406 654.8113403320313 C -234.0011596679688 654.9517211914063 -233.952880859375 655.1332397460938 -233.8117065429688 655.21484375 C -233.7645416259766 655.2421875 -233.7130432128906 655.2552490234375 -233.6622772216797 655.2552490234375 M -233.6622772216797 655.5386962890625 C -233.7643432617188 655.5386962890625 -233.8651885986328 655.5115356445313 -233.9539184570313 655.4600219726563 C -234.0875244140625 655.3828125 -234.1832733154297 655.2576904296875 -234.2231597900391 655.1078491210938 C -234.2629852294922 654.958251953125 -234.2422180175781 654.8023681640625 -234.1646728515625 654.6689453125 C -234.0639343261719 654.491943359375 -233.8711853027344 654.380615234375 -233.6629180908203 654.380615234375 C -233.5618591308594 654.380615234375 -233.4619750976563 654.4071044921875 -233.3740386962891 654.4572143554688 C -233.0988159179688 654.6156005859375 -233.0031585693359 654.9693603515625 -233.1598052978516 655.2463989257813 C -233.2628631591797 655.4270629882813 -233.4552001953125 655.5386962890625 -233.6622772216797 655.5386962890625 Z" stroke="none" fill="#727c8e"/>
    </g>
    <g id="Path_137" data-name="Path 137" transform="translate(-1.072 -2.8)" fill="none" stroke-miterlimit="10">
      <path d="M-232.951,658.764a.3.3,0,0,1-.3-.3.294.294,0,0,1,.3-.295.294.294,0,0,1,.3.295A.3.3,0,0,1-232.951,658.764Z" stroke="none"/>
      <path d="M -232.9505004882813 658.7640380859375 C -232.7864990234375 658.7640380859375 -232.6549377441406 658.6307373046875 -232.6549377441406 658.4676513671875 C -232.6549377441406 658.3037109375 -232.7864990234375 658.1729736328125 -232.9505004882813 658.1729736328125 C -233.1144714355469 658.1729736328125 -233.2460327148438 658.3037109375 -233.2460327148438 658.4676513671875 C -233.2460327148438 658.6307373046875 -233.1144714355469 658.7640380859375 -232.9505004882813 658.7640380859375 M -232.9505004882813 659.0474853515625 C -233.2697601318359 659.0474853515625 -233.5294952392578 658.7874145507813 -233.5294952392578 658.4676513671875 C -233.5294952392578 658.1488647460938 -233.2697601318359 657.8895263671875 -232.9505004882813 657.8895263671875 C -232.6312255859375 657.8895263671875 -232.3714752197266 658.1488647460938 -232.3714752197266 658.4676513671875 C -232.3714752197266 658.7874145507813 -232.6312255859375 659.0474853515625 -232.9505004882813 659.0474853515625 Z" stroke="none" fill="#727c8e"/>
    </g>
    <g id="Path_138" data-name="Path 138" transform="translate(-1.312 -2.687)" fill="none" stroke-miterlimit="10">
      <path d="M-231,657.844a.3.3,0,0,1-.3-.295.3.3,0,0,1,.3-.3.3.3,0,0,1,.3.3A.294.294,0,0,1-231,657.844Z" stroke="none"/>
      <path d="M -230.9996032714844 657.84423828125 C -230.8364868164063 657.84423828125 -230.7040710449219 657.7135620117188 -230.7040710449219 657.5496215820313 C -230.7040710449219 657.384765625 -230.8364868164063 657.2540893554688 -230.9996032714844 657.2540893554688 C -231.161865234375 657.2540893554688 -231.2960205078125 657.384765625 -231.2960205078125 657.5496215820313 C -231.2960205078125 657.7135620117188 -231.161865234375 657.84423828125 -230.9996032714844 657.84423828125 M -230.9996032714844 658.127685546875 C -231.3193511962891 658.127685546875 -231.5794830322266 657.8683471679688 -231.5794830322266 657.5496215820313 C -231.5794830322266 657.2303466796875 -231.3193511962891 656.9706420898438 -230.9996032714844 656.9706420898438 C -230.6803436279297 656.9706420898438 -230.4206085205078 657.2303466796875 -230.4206085205078 657.5496215820313 C -230.4206085205078 657.8683471679688 -230.6803436279297 658.127685546875 -230.9996032714844 658.127685546875 Z" stroke="none" fill="#727c8e"/>
    </g>
    <g id="Path_139" data-name="Path 139" transform="translate(-1.491 -2.504)" fill="none" stroke-miterlimit="10">
      <path d="M-229.549,656.357a.3.3,0,0,1-.3-.295.3.3,0,0,1,.3-.3.3.3,0,0,1,.3.3A.3.3,0,0,1-229.549,656.357Z" stroke="none"/>
      <path d="M -229.5485076904297 656.3570556640625 C -229.3853912353516 656.3570556640625 -229.2520904541016 656.2255249023438 -229.2520904541016 656.0624389648438 C -229.2520904541016 655.8992919921875 -229.3853912353516 655.7659912109375 -229.5485076904297 655.7659912109375 C -229.7107086181641 655.7659912109375 -229.8440093994141 655.8992919921875 -229.8440093994141 656.0624389648438 C -229.8440093994141 656.2255249023438 -229.7107086181641 656.3570556640625 -229.5485076904297 656.3570556640625 M -229.5485076904297 656.6405029296875 C -229.8677520751953 656.6405029296875 -230.1274719238281 656.3811645507813 -230.1274719238281 656.0624389648438 C -230.1274719238281 655.74267578125 -229.8677520751953 655.4825439453125 -229.5485076904297 655.4825439453125 C -229.228759765625 655.4825439453125 -228.9686279296875 655.74267578125 -228.9686279296875 656.0624389648438 C -228.9686279296875 656.3811645507813 -229.228759765625 656.6405029296875 -229.5485076904297 656.6405029296875 Z" stroke="none" fill="#727c8e"/>
    </g>
    <g id="Path_140" data-name="Path 140" transform="translate(-1.783 -2.834)" fill="none" stroke-miterlimit="10">
      <path d="M-227.028,659a.3.3,0,0,1-.4-.109.3.3,0,0,1,.109-.4.3.3,0,0,1,.405.108A.3.3,0,0,1-227.028,659Z" stroke="none"/>
      <path d="M -227.1756439208984 659.0391235351563 C -227.1256103515625 659.0391235351563 -227.0748443603516 659.026611328125 -227.0282440185547 659.0004272460938 C -226.8861846923828 658.9198608398438 -226.8379669189453 658.7374267578125 -226.9186248779297 658.5953979492188 C -226.9733276367188 658.5006713867188 -227.0733337402344 658.4478149414063 -227.1758880615234 658.4478149414063 C -227.2262573242188 658.4478149414063 -227.2772674560547 658.4605712890625 -227.3237762451172 658.4874267578125 C -227.4658355712891 658.5708618164063 -227.5131988525391 658.7488403320313 -227.4325408935547 658.8916625976563 C -227.3777160644531 658.9866333007813 -227.2781829833984 659.0391235351563 -227.1756439208984 659.0391235351563 M -227.1756439208984 659.3226318359375 C -227.3825225830078 659.3226318359375 -227.5750274658203 659.2117919921875 -227.6780242919922 659.0333862304688 C -227.837158203125 658.7516479492188 -227.7440185546875 658.405517578125 -227.4673309326172 658.2429809570313 C -227.3775329589844 658.191162109375 -227.2774047851563 658.1643676757813 -227.1758880615234 658.1643676757813 C -226.9688568115234 658.1643676757813 -226.7762298583984 658.2752075195313 -226.6731719970703 658.45361328125 C -226.5959777832031 658.5894775390625 -226.5760955810547 658.7454223632813 -226.6161499023438 658.89453125 C -226.6566467285156 659.0452270507813 -226.7533264160156 659.17041015625 -226.8884124755859 659.2470092773438 C -226.9766998291016 659.296630859375 -227.0757141113281 659.3226318359375 -227.1756439208984 659.3226318359375 Z" stroke="none" fill="#727c8e"/>
    </g>
    <g id="Path_141" data-name="Path 141" transform="translate(-1.934 -2.616)" fill="none" stroke-miterlimit="10">
      <path d="M-225.8,657.229a.3.3,0,0,1-.4-.11.3.3,0,0,1,.107-.4.293.293,0,0,1,.4.108A.3.3,0,0,1-225.8,657.229Z" stroke="none"/>
      <path d="M -225.9440307617188 657.2692260742188 C -225.8941345214844 657.2692260742188 -225.8436279296875 657.2564086914063 -225.79736328125 657.2293701171875 C -225.6561584472656 657.1478271484375 -225.6087951660156 656.9680786132813 -225.6903686523438 656.8251342773438 C -225.7449340820313 656.7301025390625 -225.8438720703125 656.67626953125 -225.9459381103516 656.67626953125 C -225.9963989257813 656.67626953125 -226.0476379394531 656.689453125 -226.0946350097656 656.71728515625 C -226.2340698242188 656.7979736328125 -226.2840576171875 656.9786376953125 -226.2016296386719 657.1197509765625 C -226.1461944580078 657.21533203125 -226.04638671875 657.2692260742188 -225.9440307617188 657.2692260742188 M -225.9440307617188 657.5526733398438 C -226.1501617431641 657.5526733398438 -226.3428192138672 657.4412841796875 -226.4468231201172 657.261962890625 C -226.524169921875 657.1295776367188 -226.5452270507813 656.9739379882813 -226.5056762695313 656.8245239257813 C -226.4660034179688 656.6746215820313 -226.3704376220703 656.5493774414063 -226.2366180419922 656.471923828125 C -226.150146484375 656.420654296875 -226.0487518310547 656.392822265625 -225.9459381103516 656.392822265625 C -225.7397918701172 656.392822265625 -225.5476684570313 656.50439453125 -225.4445495605469 656.6839599609375 C -225.2860565185547 656.9617309570313 -225.3809051513672 657.3162231445313 -225.6556091308594 657.474853515625 C -225.7423400878906 657.5255126953125 -225.8424987792969 657.5526733398438 -225.9440307617188 657.5526733398438 Z" stroke="none" fill="#727c8e"/>
    </g>
    <g id="Path_142" data-name="Path 142" transform="translate(-1.998 -2.368)" fill="none" stroke-miterlimit="10">
      <path d="M-225.284,655.215a.292.292,0,0,1-.4-.108.293.293,0,0,1,.107-.4.3.3,0,0,1,.4.108A.3.3,0,0,1-225.284,655.215Z" stroke="none"/>
      <path d="M -225.4321441650391 655.2552490234375 C -225.3817749023438 655.2552490234375 -225.3307495117188 655.2421875 -225.2841796875 655.21484375 C -225.1430053710938 655.1332397460938 -225.0938720703125 654.9517211914063 -225.1754455566406 654.8113403320313 C -225.230224609375 654.7171630859375 -225.3301086425781 654.6640625 -225.4326019287109 654.6640625 C -225.482666015625 654.6640625 -225.5333709716797 654.6767578125 -225.5797119140625 654.7034912109375 C -225.7217712402344 654.7842407226563 -225.7691345214844 654.9657592773438 -225.6866760253906 655.1068725585938 C -225.6322021484375 655.202392578125 -225.5335083007813 655.2552490234375 -225.4321441650391 655.2552490234375 M -225.4321594238281 655.5386962890625 C -225.6385498046875 655.5386962890625 -225.8304290771484 655.4270629882813 -225.9329223632813 655.247314453125 C -226.0101470947266 655.1151733398438 -226.0312194824219 654.9581298828125 -225.9907989501953 654.8076782226563 C -225.9505767822266 654.6580810546875 -225.8543395996094 654.5335083007813 -225.7197875976563 654.4570922851563 C -225.6336822509766 654.4073486328125 -225.5338287353516 654.380615234375 -225.4326019287109 654.380615234375 C -225.2262573242188 654.380615234375 -225.0338287353516 654.4910278320313 -224.930419921875 654.6688232421875 C -224.8529968261719 654.8020629882813 -224.8323059082031 654.9576416015625 -224.8721008300781 655.1070556640625 C -224.9120635986328 655.2572021484375 -225.0080261230469 655.3826293945313 -225.142333984375 655.4602661132813 C -225.2291259765625 655.51123046875 -225.3299407958984 655.5386962890625 -225.4321594238281 655.5386962890625 Z" stroke="none" fill="#727c8e"/>
    </g>
    <path id="Path_143" data-name="Path 143" d="M-230.242,652.375a5.24,5.24,0,0,1-5.237-5.238,5.239,5.239,0,0,1,5.237-5.237A5.238,5.238,0,0,1-225,647.137,5.239,5.239,0,0,1-230.242,652.375Z" transform="translate(-0.798 -0.798)" fill="none" stroke="#727c8e" stroke-miterlimit="10" stroke-width="1"/>
    <g id="Path_144" data-name="Path 144" transform="translate(-2.368 -1.998)" fill="none" stroke-miterlimit="10">
      <path d="M-222.569,652.2a.3.3,0,0,1-.105-.4.3.3,0,0,1,.4-.109.3.3,0,0,1,.108.4A.3.3,0,0,1-222.569,652.2Z" stroke="none"/>
      <path d="M -222.4190368652344 652.2425537109375 C -222.3166198730469 652.2425537109375 -222.2179565429688 652.189697265625 -222.163330078125 652.093994140625 C -222.081787109375 651.9527587890625 -222.1291198730469 651.771240234375 -222.2712097167969 651.6896362304688 C -222.3171539306641 651.6636962890625 -222.3672485351563 651.6513671875 -222.4167327880859 651.6513671875 C -222.5193481445313 651.6513671875 -222.6192932128906 651.704345703125 -222.6737365722656 651.79833984375 C -222.7570190429688 651.9413452148438 -222.7079467773438 652.1211547851563 -222.5685119628906 652.2027587890625 C -222.52099609375 652.2296752929688 -222.4695587158203 652.2425537109375 -222.4190368652344 652.2425537109375 M -222.4190368652344 652.5260009765625 C -222.5197448730469 652.5260009765625 -222.6197357177734 652.49951171875 -222.7081909179688 652.4494018554688 C -222.9864501953125 652.28662109375 -223.0792999267578 651.9314575195313 -222.9186859130859 651.6557006835938 C -222.8160552978516 651.4783935546875 -222.6235656738281 651.367919921875 -222.4167175292969 651.367919921875 C -222.3170623779297 651.367919921875 -222.2185363769531 651.393798828125 -222.1317749023438 651.4428100585938 C -221.9960784912109 651.520751953125 -221.9001617431641 651.6453857421875 -221.8599853515625 651.794677734375 C -221.8196258544922 651.944580078125 -221.8401794433594 652.1012573242188 -221.9178466796875 652.2357177734375 C -222.0198059082031 652.414306640625 -222.2121124267578 652.5260009765625 -222.4190368652344 652.5260009765625 Z" stroke="none" fill="#727c8e"/>
    </g>
    <g id="Path_145" data-name="Path 145" transform="translate(-2.415 -2.508)" fill="none" stroke-miterlimit="10">
      <path d="M-221.781,656.243a.293.293,0,0,1-.4.109.3.3,0,0,1-.108-.4.3.3,0,0,1,.405-.106A.294.294,0,0,1-221.781,656.243Z" stroke="none"/>
      <path d="M -222.0372467041016 656.392333984375 C -221.9347381591797 656.392333984375 -221.8348999023438 656.3386840820313 -221.7814636230469 656.242919921875 C -221.6998901367188 656.1035766601563 -221.7481384277344 655.9229125976563 -221.8884582519531 655.84130859375 C -221.9360198974609 655.8139038085938 -221.9876708984375 655.8008422851563 -222.0384521484375 655.8008422851563 C -222.1402587890625 655.8008422851563 -222.2386016845703 655.853271484375 -222.2936096191406 655.947509765625 C -222.3751525878906 656.0903930664063 -222.3277893066406 656.2701416015625 -222.1857299804688 656.3517456054688 C -222.1390838623047 656.3792724609375 -222.0878448486328 656.392333984375 -222.0372467041016 656.392333984375 M -222.0372467041016 656.67578125 C -222.1400299072266 656.67578125 -222.2411956787109 656.648193359375 -222.3298034667969 656.5958862304688 C -222.6026763916016 656.4391479492188 -222.6981658935547 656.0845336914063 -222.5398101806641 655.8070068359375 C -222.4349670410156 655.62744140625 -222.2433929443359 655.5173950195313 -222.0384521484375 655.5173950195313 C -221.9366149902344 655.5173950195313 -221.8358001708984 655.5444946289063 -221.7468872070313 655.5957641601563 C -221.6121673583984 655.674072265625 -221.5167846679688 655.7994384765625 -221.4773559570313 655.9493408203125 C -221.4384002685547 656.097412109375 -221.4589538574219 656.25146484375 -221.5352325439453 656.3833618164063 C -221.6370391845703 656.5638427734375 -221.8291473388672 656.67578125 -222.0372467041016 656.67578125 Z" stroke="none" fill="#727c8e"/>
    </g>
    <g id="Path_146" data-name="Path 146" transform="translate(-2.437 -2.244)" fill="none" stroke-miterlimit="10">
      <path d="M-221.6,654.095a.294.294,0,0,1-.4.108.293.293,0,0,1-.108-.4.3.3,0,0,1,.4-.11A.3.3,0,0,1-221.6,654.095Z" stroke="none"/>
      <path d="M -221.8581848144531 654.2427368164063 C -221.7564849853516 654.2427368164063 -221.6568908691406 654.189453125 -221.6022338867188 654.0947875976563 C -221.519775390625 653.95361328125 -221.5671539306641 653.77294921875 -221.7092132568359 653.6904907226563 C -221.7561798095703 653.6640014648438 -221.8071136474609 653.6513671875 -221.8572235107422 653.6513671875 C -221.9595947265625 653.6513671875 -222.0584411621094 653.7042236328125 -222.1125946044922 653.8001098632813 C -222.1941375732422 653.9404907226563 -222.1468048095703 654.123779296875 -222.0047454833984 654.20263671875 C -221.9587707519531 654.2298583984375 -221.9082336425781 654.2427368164063 -221.8581848144531 654.2427368164063 M -221.8581848144531 654.5261840820313 C -221.9591217041016 654.5261840820313 -222.0583801269531 654.4993896484375 -222.1455383300781 654.4486694335938 C -222.2784881591797 654.373779296875 -222.3741302490234 654.2509765625 -222.4150238037109 654.1026000976563 C -222.4561462402344 653.953369140625 -222.4352569580078 653.791259765625 -222.3577117919922 653.65771484375 C -222.2574310302734 653.4801025390625 -222.0649871826172 653.367919921875 -221.8572235107422 653.367919921875 C -221.7571411132813 653.367919921875 -221.6578216552734 653.39404296875 -221.5700073242188 653.4435424804688 C -221.4326629638672 653.5232543945313 -221.3369750976563 653.6485595703125 -221.2974700927734 653.7982177734375 C -221.2579803466797 653.9478149414063 -221.2792816162109 654.1038818359375 -221.3574676513672 654.2377319335938 C -221.4598999023438 654.4152221679688 -221.6520385742188 654.5261840820313 -221.8581848144531 654.5261840820313 Z" stroke="none" fill="#727c8e"/>
    </g>
    <path id="Path_147" data-name="Path 147" d="M-230.114,642.942a4.323,4.323,0,0,0-4.323,4.322,4.323,4.323,0,0,0,4.323,4.324,4.322,4.322,0,0,0,4.323-4.324A4.322,4.322,0,0,0-230.114,642.942Zm0,.728a.45.45,0,0,1,.451.448.452.452,0,0,1-.451.451.449.449,0,0,1-.448-.451A.448.448,0,0,1-230.114,643.67Zm-2.564,2.762a.45.45,0,0,1-.566.289.45.45,0,0,1-.289-.567.45.45,0,0,1,.566-.289A.451.451,0,0,1-232.678,646.432Zm1.08,3.643a.453.453,0,0,1-.631.1.453.453,0,0,1-.1-.629.452.452,0,0,1,.629-.1A.451.451,0,0,1-231.6,650.075Zm-.527-2.811a2.012,2.012,0,0,1,2.012-2.011,2.012,2.012,0,0,1,2.013,2.011,2.012,2.012,0,0,1-2.013,2.013A2.012,2.012,0,0,1-232.125,647.264Zm4.126,2.911a.45.45,0,0,1-.628-.1.45.45,0,0,1,.1-.628.452.452,0,0,1,.629.1A.451.451,0,0,1-228,650.175Zm1.017-3.454a.449.449,0,0,1-.566-.289.45.45,0,0,1,.289-.567.449.449,0,0,1,.566.289A.449.449,0,0,1-226.982,646.721Z" transform="translate(-0.926 -0.926)" fill="#727c8e"/>
    <path id="Path_148" data-name="Path 148" d="M-229.7,646.31a1.37,1.37,0,0,0-1.37,1.369,1.37,1.37,0,0,0,1.37,1.372,1.371,1.371,0,0,0,1.371-1.372A1.37,1.37,0,0,0-229.7,646.31Zm.075,2.484-1-.491-.076-1.115.927-.623,1,.491.075,1.115Z" transform="translate(-1.34 -1.34)" fill="#727c8e"/>
    <path id="Path_149" data-name="Path 149" d="M-215.274,640.567h-.509v-.878a1.265,1.265,0,0,0-1-.7c-.716-.053-1.9,0-1.9,0s-.413.125-.413.806v2.9s.125.111.2.172a8.628,8.628,0,0,1-1.326.688s-.7.305-.412,1.613a12.748,12.748,0,0,1,.281,1.6,12.639,12.639,0,0,1-.281,1.6c-.286,1.309.412,1.615.412,1.615a8.691,8.691,0,0,1,1.326.688l-.2.171v2.9c0,.681.413.807.413.807s1.183.054,1.9,0a1.263,1.263,0,0,0,1-.7v-.878h.509c1.988-1.21,1.774-6.211,1.774-6.211S-213.286,641.778-215.274,640.567Z" transform="translate(-2.615 -0.437)" fill="#727c8e"/>
  </g>
</svg>
