<svg xmlns="http://www.w3.org/2000/svg" width="25.146" height="18.778" viewBox="0 0 25.146 18.778">
  <g id="Group_394" data-name="Group 394" transform="translate(0)">
    <path id="Path_455" data-name="Path 455" d="M2589.143,550.314a1.365,1.365,0,1,1,1.364-1.364A1.364,1.364,0,0,1,2589.143,550.314Zm10.335,0a1.365,1.365,0,1,1,1.366-1.364A1.363,1.363,0,0,1,2599.478,550.314Zm4.331-15.953-3.742,9.988a.515.515,0,0,1-.481.335H2588.4c-.01,0-.019,0-.03,0H2586.4a.473.473,0,0,0-.414.42v.454a.441.441,0,0,0,.414.415h15.392a.514.514,0,0,1,0,1.029H2586.4a1.464,1.464,0,0,1-1.444-1.444V545.1a1.466,1.466,0,0,1,1.444-1.451h1.231l-4.507-11.084h-3.914a.515.515,0,0,1,0-1.029h4.261a.516.516,0,0,1,.478.32l.747,1.838,18.631-.027a.512.512,0,0,1,.482.694Z" transform="translate(-2578.696 -531.536)" fill="#515c6f"/>
    <path id="Path_456" data-name="Path 456" d="M2597.785,548.1h10.452c.007,0,.012,0,.02,0h.012l3.356-8.957-17.47.029Z" transform="translate(-2587.739 -535.988)" fill="#515c6f"/>
  </g>
</svg>
