<svg xmlns="http://www.w3.org/2000/svg" width="19.619" height="15.815" viewBox="0 0 19.619 15.815">
  <g id="Group_183" data-name="Group 183" transform="translate(-7529.944 -3022.593)">
    <path id="Path_167" data-name="Path 167" d="M7529.943,3036.1v3.745a1.835,1.835,0,0,0,1.835,1.831h15.949a1.835,1.835,0,0,0,1.835-1.831v-3.746a16.076,16.076,0,0,1-9.809,3.247A15.853,15.853,0,0,1,7529.943,3036.1Z" transform="translate(0 -3.263)" fill="#727c8e"/>
    <path id="Path_168" data-name="Path 168" d="M7538.6,3024.019a.512.512,0,0,1,.512-.51h5.019a.512.512,0,0,1,.513.51v1.25h.917v-1.25a1.429,1.429,0,0,0-1.43-1.426h-5.019a1.429,1.429,0,0,0-1.429,1.426v1.25h.917Z" transform="translate(-1.871)" fill="#727c8e"/>
    <path id="Path_169" data-name="Path 169" d="M7547.728,3027.243h-15.949a1.835,1.835,0,0,0-1.835,1.831v3.7a15.432,15.432,0,0,0,19.619,0v-3.694A1.835,1.835,0,0,0,7547.728,3027.243Zm-7.612,6.962v.818h-.789v-.761a3.252,3.252,0,0,1-1.367-.345l.241-.939a2.846,2.846,0,0,0,1.336.353c.458,0,.771-.177.771-.5s-.257-.5-.853-.7c-.86-.289-1.447-.689-1.447-1.468a1.484,1.484,0,0,1,1.359-1.428v-.763h.788v.707a2.9,2.9,0,0,1,1.166.265l-.233.907a2.673,2.673,0,0,0-1.158-.273c-.522,0-.69.225-.69.449,0,.265.28.433.964.69.957.337,1.343.779,1.343,1.5A1.538,1.538,0,0,1,7540.116,3034.2Z" transform="translate(0 -1.124)" fill="#727c8e"/>
  </g>
</svg>
