<svg xmlns="http://www.w3.org/2000/svg" width="16.234" height="16.234" viewBox="0 0 16.234 16.234">
  <g id="Group_316" data-name="Group 316" transform="translate(-559.563 -1169.454)">
    <g id="Group_287" data-name="Group 287" transform="translate(559.563 1169.454)">
      <g id="Group_286" data-name="Group 286">
        <path id="Path_225" data-name="Path 225" d="M573.894,1170.722h-.761v-1.268h-1.268v1.268h-8.371v-1.268h-1.268v1.268h-.761a1.9,1.9,0,0,0-1.9,1.9v11.161a1.9,1.9,0,0,0,1.9,1.9h12.429a1.9,1.9,0,0,0,1.9-1.9v-11.161A1.9,1.9,0,0,0,573.894,1170.722Zm.634,13.063a.635.635,0,0,1-.634.634H561.465a.635.635,0,0,1-.634-.634v-8.371h13.7Zm0-9.639h-13.7v-1.522a.635.635,0,0,1,.634-.634h.761v1.268h1.268v-1.268h8.371v1.268h1.268v-1.268h.761a.635.635,0,0,1,.634.634Z" transform="translate(-559.563 -1169.454)" fill="#727c8e"/>
      </g>
    </g>
    <g id="Group_289" data-name="Group 289" transform="translate(561.973 1176.747)">
      <g id="Group_288" data-name="Group 288" transform="translate(0 0)">
        <rect id="Rectangle_1544" data-name="Rectangle 1544" width="1.268" height="1.268" fill="#727c8e"/>
      </g>
    </g>
    <g id="Group_291" data-name="Group 291" transform="translate(564.509 1176.747)">
      <g id="Group_290" data-name="Group 290" transform="translate(0 0)">
        <rect id="Rectangle_1545" data-name="Rectangle 1545" width="1.268" height="1.268" fill="#727c8e"/>
      </g>
    </g>
    <g id="Group_293" data-name="Group 293" transform="translate(567.046 1176.747)">
      <g id="Group_292" data-name="Group 292" transform="translate(0 0)">
        <rect id="Rectangle_1546" data-name="Rectangle 1546" width="1.268" height="1.268" fill="#727c8e"/>
      </g>
    </g>
    <g id="Group_295" data-name="Group 295" transform="translate(569.582 1176.747)">
      <g id="Group_294" data-name="Group 294" transform="translate(0 0)">
        <rect id="Rectangle_1547" data-name="Rectangle 1547" width="1.268" height="1.268" fill="#727c8e"/>
      </g>
    </g>
    <g id="Group_297" data-name="Group 297" transform="translate(572.119 1176.747)">
      <g id="Group_296" data-name="Group 296" transform="translate(0 0)">
        <rect id="Rectangle_1548" data-name="Rectangle 1548" width="1.268" height="1.268" fill="#727c8e"/>
      </g>
    </g>
    <g id="Group_299" data-name="Group 299" transform="translate(561.973 1179.283)">
      <g id="Group_298" data-name="Group 298" transform="translate(0)">
        <rect id="Rectangle_1549" data-name="Rectangle 1549" width="1.268" height="1.268" fill="#727c8e"/>
      </g>
    </g>
    <g id="Group_301" data-name="Group 301" transform="translate(564.509 1179.283)">
      <g id="Group_300" data-name="Group 300" transform="translate(0)">
        <rect id="Rectangle_1550" data-name="Rectangle 1550" width="1.268" height="1.268" fill="#727c8e"/>
      </g>
    </g>
    <g id="Group_303" data-name="Group 303" transform="translate(567.046 1179.283)">
      <g id="Group_302" data-name="Group 302" transform="translate(0)">
        <rect id="Rectangle_1551" data-name="Rectangle 1551" width="1.268" height="1.268" fill="#727c8e"/>
      </g>
    </g>
    <g id="Group_305" data-name="Group 305" transform="translate(569.582 1179.283)">
      <g id="Group_304" data-name="Group 304" transform="translate(0)">
        <rect id="Rectangle_1552" data-name="Rectangle 1552" width="1.268" height="1.268" fill="#727c8e"/>
      </g>
    </g>
    <g id="Group_307" data-name="Group 307" transform="translate(561.973 1181.82)">
      <g id="Group_306" data-name="Group 306" transform="translate(0 0)">
        <rect id="Rectangle_1553" data-name="Rectangle 1553" width="1.268" height="1.268" fill="#727c8e"/>
      </g>
    </g>
    <g id="Group_309" data-name="Group 309" transform="translate(564.509 1181.82)">
      <g id="Group_308" data-name="Group 308" transform="translate(0 0)">
        <rect id="Rectangle_1554" data-name="Rectangle 1554" width="1.268" height="1.268" fill="#727c8e"/>
      </g>
    </g>
    <g id="Group_311" data-name="Group 311" transform="translate(567.046 1181.82)">
      <g id="Group_310" data-name="Group 310" transform="translate(0 0)">
        <rect id="Rectangle_1555" data-name="Rectangle 1555" width="1.268" height="1.268" fill="#727c8e"/>
      </g>
    </g>
    <g id="Group_313" data-name="Group 313" transform="translate(569.582 1181.82)">
      <g id="Group_312" data-name="Group 312" transform="translate(0 0)">
        <rect id="Rectangle_1556" data-name="Rectangle 1556" width="1.268" height="1.268" fill="#727c8e"/>
      </g>
    </g>
    <g id="Group_315" data-name="Group 315" transform="translate(572.119 1179.283)">
      <g id="Group_314" data-name="Group 314" transform="translate(0)">
        <rect id="Rectangle_1557" data-name="Rectangle 1557" width="1.268" height="1.268" fill="#727c8e"/>
      </g>
    </g>
  </g>
</svg>
