<svg id="Group_280" data-name="Group 280" xmlns="http://www.w3.org/2000/svg" width="7.89" height="7.89" viewBox="0 0 7.89 7.89">
  <g id="Group_279" data-name="Group 279" transform="translate(0 0)">
    <path id="Path_222" data-name="Path 222" d="M-32.664,465.36h-3.878a2.008,2.008,0,0,0-2.006,2.006v3.878a2.008,2.008,0,0,0,2.006,2.006h3.878a2.008,2.008,0,0,0,2.006-2.006v-3.878A2.009,2.009,0,0,0-32.664,465.36Zm.669,5.884a.669.669,0,0,1-.669.669h-3.878a.669.669,0,0,1-.668-.669v-3.878a.669.669,0,0,1,.668-.669h3.878a.67.67,0,0,1,.669.669Z" transform="translate(38.548 -465.36)" fill="#727c8e"/>
  </g>
</svg>
