<svg xmlns="http://www.w3.org/2000/svg" xmlns:xlink="http://www.w3.org/1999/xlink" width="84" height="84" viewBox="0 0 84 84">
  <defs>
    <filter id="Path_239" x="0" y="0" width="84" height="84" filterUnits="userSpaceOnUse">
      <feOffset dy="6" input="SourceAlpha"/>
      <feGaussianBlur stdDeviation="6" result="blur"/>
      <feFlood flood-color="#e48646" flood-opacity="0.49"/>
      <feComposite operator="in" in2="blur"/>
      <feComposite in="SourceGraphic"/>
    </filter>
  </defs>
  <g id="Group_325" data-name="Group 325" transform="translate(-82.548 -149)">
    <g id="icon" transform="translate(75.548 -20)">
      <g transform="matrix(1, 0, 0, 1, 7, 169)" filter="url(#Path_239)">
        <path id="Path_239-2" data-name="Path 239" d="M24,0A24.109,24.109,0,0,1,39.237,5.456,24,24,0,1,1,24,0Z" transform="translate(18 12)" fill="#e48646"/>
      </g>
      <path id="Path_238" data-name="Path 238" d="M136.648,186.579l-1.781-2.826a1.015,1.015,0,0,1-.133-.754l.707-3.265a1.011,1.011,0,0,0-.679-1.177l-3.181-1.02a1.009,1.009,0,0,1-.586-.492l-1.557-2.955a1.012,1.012,0,0,0-1.278-.465l-3.092,1.263a1.013,1.013,0,0,1-.765,0l-3.092-1.263a1.012,1.012,0,0,0-1.278.465l-1.557,2.955a1.009,1.009,0,0,1-.586.492l-3.181,1.02a1.01,1.01,0,0,0-.679,1.177l.706,3.265a1.007,1.007,0,0,1-.132.753l-1.781,2.827a1.011,1.011,0,0,0,.236,1.338l2.64,2.047a1.013,1.013,0,0,1,.383.663l.452,3.309a1.011,1.011,0,0,0,1.041.874l3.338-.129a1.011,1.011,0,0,1,.719.261l2.474,2.245a1.011,1.011,0,0,0,1.359,0l2.474-2.245a1.007,1.007,0,0,1,.719-.261l3.338.129a1.011,1.011,0,0,0,1.041-.874l.453-3.309a1.012,1.012,0,0,1,.382-.663l2.64-2.046A1.011,1.011,0,0,0,136.648,186.579Zm-14.765,2.957-2.948-2.059,1.212,2.808-.808.348-1.858-4.3.846-.366,3,2.115-1.241-2.875.807-.349,1.859,4.306Zm1.791-.774-1.858-4.3,3.193-1.378.314.728-2.324,1,.412.954,2.162-.933.313.726-2.162.932.506,1.172,2.406-1.038.313.726Zm7.279-3.141-2.247-2.849.534,3.588-.943.407-2.886-3.862.89-.384,1.926,2.677-.49-3.3,1.035-.446,2.052,2.682-.637-3.293.875-.378.813,4.757Z" transform="translate(-75.548 20)" fill="#fff"/>
    </g>
  </g>
</svg>
