<svg id="Group_287" data-name="Group 287" xmlns="http://www.w3.org/2000/svg" width="16.234" height="16.234" viewBox="0 0 16.234 16.234">
  <g id="Group_286" data-name="Group 286">
    <path id="Path_225" data-name="Path 225" d="M573.894,1170.722h-.761v-1.268h-1.268v1.268h-8.371v-1.268h-1.268v1.268h-.761a1.9,1.9,0,0,0-1.9,1.9v11.161a1.9,1.9,0,0,0,1.9,1.9h12.429a1.9,1.9,0,0,0,1.9-1.9v-11.161A1.9,1.9,0,0,0,573.894,1170.722Zm.634,13.063a.635.635,0,0,1-.634.634H561.465a.635.635,0,0,1-.634-.634v-8.371h13.7Zm0-9.639h-13.7v-1.522a.635.635,0,0,1,.634-.634h.761v1.268h1.268v-1.268h8.371v1.268h1.268v-1.268h.761a.635.635,0,0,1,.634.634Z" transform="translate(-559.563 -1169.454)" fill="#727c8e"/>
  </g>
</svg>
