<svg xmlns="http://www.w3.org/2000/svg" width="22.528" height="17.189" viewBox="0 0 22.528 17.189">
  <g id="Group_398" data-name="Group 398" transform="translate(-269.518 -203.685)">
    <path id="Path_454" data-name="Path 454" d="M7477.126,1779.9a19.427,19.427,0,0,1,7.965-1.577h.146a19.483,19.483,0,0,1,8.073,1.577c2.058.968,3.188,2.26,3.172,3.5.017,1.24-1.114,2.532-3.172,3.5a19.522,19.522,0,0,1-8.092,1.576,22.477,22.477,0,0,1-5.067-.561v-.03h-.134a15.115,15.115,0,0,1-2.891-.985c-2.054-.966-3.183-2.255-3.172-3.491v-.018C7473.944,1782.15,7475.073,1780.862,7477.126,1779.9Zm13.512,8.863v6.109a20.739,20.739,0,0,1-2.893.505v-6.125A21.838,21.838,0,0,0,7490.638,1788.759Zm-7.6.52v6.13a21.352,21.352,0,0,1-2.892-.461v-6.109A22.118,22.118,0,0,0,7483.042,1789.279Zm-9.088,1.154v-4.739a6.632,6.632,0,0,0,1.494,1.3v5.915A3.286,3.286,0,0,1,7473.955,1790.433Zm2.4,3.094v-6c.127.066.257.129.388.192a15.441,15.441,0,0,0,2.5.9v6.1a14.07,14.07,0,0,1-2.118-.78C7476.85,1793.8,7476.6,1793.667,7476.352,1793.527Zm7.6,1.947v-6.129c.417.021.842.032,1.271.032.552,0,1.091-.024,1.621-.058v6.13c-.53.035-1.069.06-1.621.06C7484.79,1795.508,7484.365,1795.5,7483.948,1795.473Zm9.362-1.541a13.59,13.59,0,0,1-1.768.679v-6.1a15.057,15.057,0,0,0,2.154-.8c.257-.121.5-.249.738-.382v5.972A9.427,9.427,0,0,1,7493.31,1793.932Zm2.029-1.32v-5.669h-.274a6.593,6.593,0,0,0,1.417-1.249v4.739A3.015,3.015,0,0,1,7495.339,1792.612Z" transform="translate(-7204.437 -1574.633)" fill="#e48646"/>
  </g>
</svg>
