<svg xmlns="http://www.w3.org/2000/svg" xmlns:xlink="http://www.w3.org/1999/xlink" width="84" height="84" viewBox="0 0 84 84">
  <defs>
    <filter id="Ellipse_26" x="0" y="0" width="84" height="84" filterUnits="userSpaceOnUse">
      <feOffset dy="6" input="SourceAlpha"/>
      <feGaussianBlur stdDeviation="6" result="blur"/>
      <feFlood flood-color="#2d77f9" flood-opacity="0.396"/>
      <feComposite operator="in" in2="blur"/>
      <feComposite in="SourceGraphic"/>
    </filter>
  </defs>
  <g id="Group_323" data-name="Group 323" transform="translate(30.019 24.106)">
    <g transform="matrix(1, 0, 0, 1, -30.02, -24.11)" filter="url(#Ellipse_26)">
      <circle id="Ellipse_26-2" data-name="Ellipse 26" cx="24" cy="24" r="24" transform="translate(18 12)" fill="#2d77f9"/>
    </g>
    <path id="Path_228" data-name="Path 228" d="M921.126,920.227c-.2.049-.4.093-.6.13a.963.963,0,1,0,.351,1.894c.238-.044.478-.1.714-.155a.963.963,0,1,0-.466-1.869Z" transform="translate(-906.725 -898.49)" fill="#fff"/>
    <path id="Path_229" data-name="Path 229" d="M954.174,860.764a.963.963,0,1,0,1.829-.606c-.076-.23-.16-.461-.25-.686a.963.963,0,0,0-1.789.715C954.039,860.377,954.11,860.571,954.174,860.764Z" transform="translate(-932.649 -851.938)" fill="#fff"/>
    <path id="Path_230" data-name="Path 230" d="M935.32,914.108c-.17.112-.345.221-.522.323a.963.963,0,1,0,.963,1.669c.21-.121.419-.25.621-.384a.963.963,0,0,0-1.062-1.607Z" transform="translate(-917.789 -893.746)" fill="#fff"/>
    <path id="Path_231" data-name="Path 231" d="M959.064,874.99a.963.963,0,1,0-1.925.075c.008.2.01.41.005.613a.963.963,0,1,0,1.926.043C959.075,875.477,959.073,875.232,959.064,874.99Z" transform="translate(-935.111 -863.473)" fill="#fff"/>
    <path id="Path_232" data-name="Path 232" d="M948.224,903.488a.963.963,0,0,0-1.349.193c-.122.163-.251.324-.383.479a.964.964,0,0,0,.109,1.358.878.878,0,0,0,.071.054.963.963,0,0,0,1.287-.163c.157-.185.311-.377.457-.572A.963.963,0,0,0,948.224,903.488Z" transform="translate(-926.857 -885.66)" fill="#fff"/>
    <path id="Path_233" data-name="Path 233" d="M955.642,889.506a.963.963,0,0,0-1.207.631c-.061.194-.128.389-.2.58a.963.963,0,0,0,1.8.686c.086-.227.167-.459.239-.689A.964.964,0,0,0,955.642,889.506Z" transform="translate(-932.859 -875.16)" fill="#fff"/>
    <path id="Path_234" data-name="Path 234" d="M875.932,851.99a9.95,9.95,0,0,1-2.471-.785l-.027-.015c-.185-.087-.369-.18-.548-.277l0,0a10.274,10.274,0,0,1-.958-.6,10.051,10.051,0,0,1,.042-16.464l.035-.024a10.068,10.068,0,0,1,11.285-.091l-.753,1.087c-.209.3-.08.523.286.49l3.269-.293a.538.538,0,0,0,.487-.7l-.878-3.163c-.1-.354-.35-.4-.559-.094l-.755,1.09a11.9,11.9,0,0,0-8.717-1.854q-.462.08-.912.195h-.006l-.034.01a11.878,11.878,0,0,0-6.586,4.414c-.014.017-.028.033-.041.05-.055.074-.109.149-.162.224-.087.123-.173.25-.254.376-.01.015-.018.031-.027.046a11.876,11.876,0,0,0-1.9,7c0,.008,0,.016,0,.025.011.242.03.487.056.728,0,.016,0,.03.007.046.027.243.06.486.1.729a11.886,11.886,0,0,0,3.352,6.447l.012.013,0,0a12.131,12.131,0,0,0,1.535,1.282,11.88,11.88,0,0,0,4.776,2,.963.963,0,0,0,.34-1.9Z" transform="translate(-865.734 -830.114)" fill="#fff"/>
    <path id="Path_235" data-name="Path 235" d="M910.542,847.536a.78.78,0,0,0-.78.779v7.765l7.1,3.671a.779.779,0,0,0,.715-1.385l-6.258-3.235v-6.816A.779.779,0,0,0,910.542,847.536Z" transform="translate(-899.152 -843.338)" fill="#fff"/>
  </g>
</svg>
