<svg xmlns="http://www.w3.org/2000/svg" width="21.083" height="21.083" viewBox="0 0 21.083 21.083">
  <g id="Group_395" data-name="Group 395" transform="translate(0)">
    <path id="Path_457" data-name="Path 457" d="M5945.713,1816.2l-1.761,1.762a10.588,10.588,0,0,0,2.837,1.9l.955-2.3A8.047,8.047,0,0,1,5945.713,1816.2Z" transform="translate(-5940.609 -1799.717)" fill="#515c6f"/>
    <path id="Path_458" data-name="Path 458" d="M5937.444,1789.8l-2.306-.954a10.553,10.553,0,0,0-.667,3.35h2.5A8.019,8.019,0,0,1,5937.444,1789.8Z" transform="translate(-5934.472 -1782.01)" fill="#515c6f"/>
    <path id="Path_459" data-name="Path 459" d="M5940.8,1780.7l-1.763-1.762a10.591,10.591,0,0,0-1.9,2.838l2.3.954A8.029,8.029,0,0,1,5940.8,1780.7Z" transform="translate(-5936.199 -1775.595)" fill="#515c6f"/>
    <path id="Path_460" data-name="Path 460" d="M5939.444,1809.015l-2.3.955a10.575,10.575,0,0,0,1.9,2.838l1.762-1.762A8.043,8.043,0,0,1,5939.444,1809.015Z" transform="translate(-5936.199 -1795.067)" fill="#515c6f"/>
    <path id="Path_461" data-name="Path 461" d="M5936.971,1800.36h-2.5a10.558,10.558,0,0,0,.667,3.351l2.306-.955A8.014,8.014,0,0,1,5936.971,1800.36Z" transform="translate(-5934.472 -1789.464)" fill="#515c6f"/>
    <path id="Path_462" data-name="Path 462" d="M5947.743,1774.428l-.955-2.3a10.563,10.563,0,0,0-2.838,1.9l1.761,1.762A8.066,8.066,0,0,1,5947.743,1774.428Z" transform="translate(-5940.608 -1771.184)" fill="#515c6f"/>
    <path id="Path_463" data-name="Path 463" d="M5986.311,1792.2h2.5a10.506,10.506,0,0,0-.667-3.351l-2.3.954A8.051,8.051,0,0,1,5986.311,1792.2Z" transform="translate(-5967.726 -1782.009)" fill="#515c6f"/>
    <path id="Path_464" data-name="Path 464" d="M5982.571,1782.73l2.305-.954a10.594,10.594,0,0,0-1.9-2.838l-1.762,1.762A8.077,8.077,0,0,1,5982.571,1782.73Z" transform="translate(-5964.733 -1775.595)" fill="#515c6f"/>
    <path id="Path_465" data-name="Path 465" d="M5968.726,1770.125a10.534,10.534,0,0,0-3.352-.667v2.5a8.011,8.011,0,0,1,2.4.474Z" transform="translate(-5954.478 -1769.458)" fill="#515c6f"/>
    <path id="Path_466" data-name="Path 466" d="M5976.06,1775.786l1.763-1.762a10.55,10.55,0,0,0-2.838-1.9l-.955,2.3A8.031,8.031,0,0,1,5976.06,1775.786Z" transform="translate(-5960.082 -1771.184)" fill="#515c6f"/>
    <path id="Path_467" data-name="Path 467" d="M5957.208,1771.955v-2.5a10.52,10.52,0,0,0-3.352.667l.954,2.3A8.011,8.011,0,0,1,5957.208,1771.955Z" transform="translate(-5947.022 -1769.458)" fill="#515c6f"/>
    <path id="Path_468" data-name="Path 468" d="M5985.837,1802.757l2.3.954a10.516,10.516,0,0,0,.667-3.351h-2.5A8.05,8.05,0,0,1,5985.837,1802.757Z" transform="translate(-5967.726 -1789.464)" fill="#515c6f"/>
    <path id="Path_469" data-name="Path 469" d="M5965.374,1821.3v2.5a10.567,10.567,0,0,0,3.352-.667l-.955-2.3A8.03,8.03,0,0,1,5965.374,1821.3Z" transform="translate(-5954.478 -1802.713)" fill="#515c6f"/>
    <path id="Path_470" data-name="Path 470" d="M5958.229,1785.871a7.343,7.343,0,1,0-7.343,7.344A7.352,7.352,0,0,0,5958.229,1785.871Zm-10.585,1.907c0,.832-.449.956-.717.956a.679.679,0,0,1-.52-.221.853.853,0,0,1-.191-.589v-2.977c-.641.456-.907.521-1.067.521a.583.583,0,0,1-.426-.188.612.612,0,0,1-.181-.433.526.526,0,0,1,.2-.445,2.763,2.763,0,0,1,.458-.254,2.964,2.964,0,0,0,.674-.416,2.836,2.836,0,0,0,.445-.489,4.662,4.662,0,0,1,.289-.379.515.515,0,0,1,.391-.131.588.588,0,0,1,.48.233.864.864,0,0,1,.162.548Zm4.666-.938a2.688,2.688,0,0,1-.3.864,2.058,2.058,0,0,1-.731.755,1.991,1.991,0,0,1-2.136-.091,2.166,2.166,0,0,1-.747-.978,3.5,3.5,0,0,1-.182-.731,5.892,5.892,0,0,1-.057-.84,8.085,8.085,0,0,1,.062-1.041,3.55,3.55,0,0,1,.2-.823,1.872,1.872,0,0,1,1.832-1.231,2.1,2.1,0,0,1,.774.139,1.809,1.809,0,0,1,.619.413,2.3,2.3,0,0,1,.442.652h0a4.43,4.43,0,0,1,.3,1.826A6.678,6.678,0,0,1,5952.31,1786.841Zm2.537,1.886a1.914,1.914,0,0,1-1.135-.359,2.163,2.163,0,0,1-.749-.978,3.561,3.561,0,0,1-.182-.731,6.165,6.165,0,0,1-.056-.84,7.918,7.918,0,0,1,.063-1.041,3.528,3.528,0,0,1,.2-.823,1.873,1.873,0,0,1,1.833-1.231,2.093,2.093,0,0,1,.774.139,1.815,1.815,0,0,1,.62.412,2.3,2.3,0,0,1,.441.654,4.5,4.5,0,0,1,.3,1.826,6.524,6.524,0,0,1-.078,1.085,2.676,2.676,0,0,1-.3.864,2.052,2.052,0,0,1-.73.755A1.937,1.937,0,0,1,5954.846,1788.727Z" transform="translate(-5940.345 -1775.33)" fill="#515c6f"/>
    <path id="Path_471" data-name="Path 471" d="M5974.032,1817.556l.954,2.3a10.577,10.577,0,0,0,2.838-1.9l-1.762-1.762A8.051,8.051,0,0,1,5974.032,1817.556Z" transform="translate(-5960.083 -1799.717)" fill="#515c6f"/>
    <path id="Path_472" data-name="Path 472" d="M5981.212,1811.046l1.762,1.762a10.573,10.573,0,0,0,1.9-2.838l-2.3-.955A8.054,8.054,0,0,1,5981.212,1811.046Z" transform="translate(-5964.731 -1795.067)" fill="#515c6f"/>
    <path id="Path_473" data-name="Path 473" d="M5953.858,1823.129a10.544,10.544,0,0,0,3.351.667v-2.5a8.017,8.017,0,0,1-2.4-.474Z" transform="translate(-5947.023 -1802.713)" fill="#515c6f"/>
    <path id="Path_474" data-name="Path 474" d="M5974.709,1793.9a.472.472,0,0,0-.38-.151.482.482,0,0,0-.489.363,4.321,4.321,0,0,0-.179,1.452,6.443,6.443,0,0,0,.078,1.11,1.257,1.257,0,0,0,.231.58.513.513,0,0,0,.741-.007,1.284,1.284,0,0,0,.229-.587,6.747,6.747,0,0,0,.074-1.126,6.05,6.05,0,0,0-.078-1.077A1.186,1.186,0,0,0,5974.709,1793.9Z" transform="translate(-5959.843 -1785.187)" fill="#515c6f"/>
    <path id="Path_475" data-name="Path 475" d="M5961.758,1793.9a.466.466,0,0,0-.38-.151.483.483,0,0,0-.49.363,4.358,4.358,0,0,0-.178,1.452,6.391,6.391,0,0,0,.079,1.11,1.251,1.251,0,0,0,.229.58.515.515,0,0,0,.743-.007,1.287,1.287,0,0,0,.228-.587,6.809,6.809,0,0,0,.075-1.126,6.056,6.056,0,0,0-.079-1.077A1.191,1.191,0,0,0,5961.758,1793.9Z" transform="translate(-5951.458 -1785.187)" fill="#515c6f"/>
  </g>
</svg>
