<svg xmlns="http://www.w3.org/2000/svg" width="25.53" height="11.26" viewBox="0 0 25.53 11.26">
  <g id="Group_192" data-name="Group 192" transform="translate(-2434.156 -2406.142)">
    <g id="Group_191" data-name="Group 191" transform="translate(2434.156 2406.142)">
      <path id="Path_175" data-name="Path 175" d="M2452.045,2409.716l-3.838-3.365-.238-.209h-7.1l-.206.129-3.745,2.355-.381.24h-2.385v6.465h1.809c0-.043-.007-.086-.007-.129a2.975,2.975,0,0,1,5.924-.389h8.789a2.975,2.975,0,0,1,5.925.389c0,.043,0,.086-.006.129h1.17v-4.205h-4.108Zm-.556.634h-7.571v-3.365h3.734Zm-14.117-1.009,3.744-2.355h1.892v3.365h-5.636Z" transform="translate(-2434.156 -2406.142)" fill="#727c8e"/>
      <path id="Path_176" data-name="Path 176" d="M2444.475,2427.746a2.2,2.2,0,1,0,2.2,2.2A2.2,2.2,0,0,0,2444.475,2427.746Z" transform="translate(-2439.697 -2420.886)" fill="#727c8e"/>
      <path id="Path_177" data-name="Path 177" d="M2490.729,2427.745a2.2,2.2,0,1,0,2.2,2.2A2.205,2.205,0,0,0,2490.729,2427.745Z" transform="translate(-2471.265 -2420.886)" fill="#727c8e"/>
      <rect id="Rectangle_1515" data-name="Rectangle 1515" width="0.776" height="4.225" transform="translate(24.753 4.974)" fill="#727c8e"/>
    </g>
  </g>
</svg>
