<svg xmlns="http://www.w3.org/2000/svg" width="22.528" height="22.364" viewBox="0 0 22.528 22.364">
  <g id="Group_405" data-name="Group 405" transform="translate(-865.734 -830.114)">
    <g id="Layer_2" data-name="Layer 2" transform="translate(865.734 830.114)">
      <g id="Group_404" data-name="Group 404" transform="translate(0 0)">
        <path id="Path_455" data-name="Path 455" d="M921.043,920.226c-.186.046-.375.088-.563.122a.906.906,0,1,0,.33,1.781c.224-.041.45-.09.671-.146a.906.906,0,1,0-.438-1.757Z" transform="translate(-907.504 -899.789)" fill="#e48646"/>
        <path id="Path_456" data-name="Path 456" d="M954.157,860.651a.906.906,0,1,0,1.719-.569c-.072-.216-.151-.433-.235-.645a.906.906,0,0,0-1.682.672C954.03,860.287,954.1,860.469,954.157,860.651Z" transform="translate(-933.92 -852.353)" fill="#e48646"/>
        <path id="Path_457" data-name="Path 457" d="M935.26,914.1c-.16.106-.325.208-.491.3a.906.906,0,1,0,.905,1.569c.2-.114.394-.235.584-.361a.906.906,0,0,0-1-1.511Z" transform="translate(-918.778 -894.954)" fill="#e48646"/>
        <path id="Path_458" data-name="Path 458" d="M958.948,874.934a.906.906,0,1,0-1.81.071c.007.191.009.385.005.576a.906.906,0,1,0,1.811.04C958.959,875.393,958.957,875.162,958.948,874.934Z" transform="translate(-936.429 -864.106)" fill="#e48646"/>
        <path id="Path_459" data-name="Path 459" d="M948.107,903.477a.905.905,0,0,0-1.268.181c-.115.153-.236.3-.36.45a.906.906,0,0,0,.1,1.277.825.825,0,0,0,.066.051.906.906,0,0,0,1.21-.154c.148-.174.292-.355.43-.538A.906.906,0,0,0,948.107,903.477Z" transform="translate(-928.018 -886.715)" fill="#e48646"/>
        <path id="Path_460" data-name="Path 460" d="M955.554,889.5a.905.905,0,0,0-1.135.593c-.057.182-.121.365-.189.545a.906.906,0,0,0,1.692.645c.081-.213.157-.431.225-.648A.906.906,0,0,0,955.554,889.5Z" transform="translate(-934.134 -876.016)" fill="#e48646"/>
        <path id="Path_461" data-name="Path 461" d="M875.322,850.681a9.356,9.356,0,0,1-2.323-.738l-.026-.014c-.174-.082-.347-.169-.515-.261l0,0a9.655,9.655,0,0,1-.9-.563,9.45,9.45,0,0,1,.039-15.479l.033-.023a9.466,9.466,0,0,1,10.609-.085l-.708,1.022c-.2.284-.076.492.269.461l3.073-.275a.506.506,0,0,0,.458-.662l-.825-2.974c-.093-.333-.329-.373-.526-.089l-.709,1.025a11.183,11.183,0,0,0-8.2-1.743q-.435.075-.857.183h-.006l-.032.009a11.167,11.167,0,0,0-6.192,4.15c-.013.016-.027.031-.039.047-.051.069-.1.14-.152.211-.082.116-.162.235-.239.354-.01.014-.017.029-.025.043a11.166,11.166,0,0,0-1.785,6.586c0,.008,0,.015,0,.023.01.227.028.457.053.684,0,.015,0,.029.007.043.025.228.057.457.1.685a11.175,11.175,0,0,0,3.151,6.061l.012.012,0,0a11.4,11.4,0,0,0,1.443,1.206,11.168,11.168,0,0,0,4.49,1.879.906.906,0,0,0,.32-1.783Z" transform="translate(-865.734 -830.114)" fill="#e48646"/>
        <path id="Path_462" data-name="Path 462" d="M910.495,847.536a.733.733,0,0,0-.733.733v7.3l6.677,3.452a.733.733,0,0,0,.673-1.3l-5.884-3.042v-6.408A.732.732,0,0,0,910.495,847.536Z" transform="translate(-899.787 -843.589)" fill="#e48646"/>
      </g>
    </g>
  </g>
</svg>
