<svg xmlns="http://www.w3.org/2000/svg" width="20.194" height="18.68" viewBox="0 0 20.194 18.68">
  <g id="Group_196" data-name="Group 196" transform="translate(0.001 -19.196)">
    <path id="Path_446" data-name="Path 446" d="M18.346,23.483H18.1v-2.44A1.849,1.849,0,0,0,16.248,19.2H2.852A2.855,2.855,0,0,0,.015,21.769C-.007,21.87,0,20.963,0,35.024a2.855,2.855,0,0,0,2.852,2.852H18.346a1.849,1.849,0,0,0,1.847-1.847V25.33a1.849,1.849,0,0,0-1.847-1.847ZM2.852,20.465h13.4a.579.579,0,0,1,.578.578v2.44H2.852a1.511,1.511,0,1,1,0-3.018ZM18.346,36.607H2.852a1.585,1.585,0,0,1-1.583-1.583V24.271a2.835,2.835,0,0,0,1.583.481H18.346a.579.579,0,0,1,.578.578V27.9H14.151a2.948,2.948,0,1,0,0,5.9h4.773v2.231a.579.579,0,0,1-.578.578Zm.578-4.078H14.151a1.68,1.68,0,1,1,0-3.359h4.773Z" fill="#727c8e"/>
    <circle id="Ellipse_13" data-name="Ellipse 13" cx="0.919" cy="0.919" r="0.919" transform="translate(13.466 29.93)" fill="#727c8e"/>
  </g>
</svg>
