<svg id="Group_318" data-name="Group 318" xmlns="http://www.w3.org/2000/svg" width="19.596" height="11.932" viewBox="0 0 19.596 11.932">
  <g id="Group_317" data-name="Group 317" transform="translate(0)">
    <path id="Path_226" data-name="Path 226" d="M3699.681,577.137a.415.415,0,0,0-.58-.113l-3.134,2.055h-4.126v-1.723h4.252a.418.418,0,0,0,.244-.084l3.235-2.336a.418.418,0,0,0-.492-.677l-3.122,2.256h-4.118V574.75h4.252a.417.417,0,0,0,.26-.08l3.235-2.55a.422.422,0,0,0-.521-.664l-3.122,2.454h-4.1v-1.68h4.252a.449.449,0,0,0,.286-.118l3.235-3a.436.436,0,0,0,.1-.471.432.432,0,0,0-.391-.277h-4.008s-.012-.076-.025-.109a.424.424,0,0,0-.391-.269h-6.428a.422.422,0,0,0-.286.113l-.281.265h-4.1a.43.43,0,0,0-.286.122l-3.235,3a.437.437,0,0,0-.1.471.432.432,0,0,0,.391.277h4v1.68h-4a.42.42,0,0,0,0,.84h4v1.764h-4a.42.42,0,0,0,0,.84h4v1.723h-4a.42.42,0,0,0,0,.84h15.52a.415.415,0,0,0,.231-.08l3.235-2.118A.425.425,0,0,0,3699.681,577.137Zm-5.012-7.915s.008-.017.017-.017h3.571l-2.327,2.185h-3.576Zm-9.978,2.168h-3.046l2.328-2.185h3.033l-2.294,2.151C3684.7,571.36,3684.7,571.347,3684.691,571.389Zm5.033,2.777a.42.42,0,1,1-.84-.008.694.694,0,0,0-.693-.693h-.008a.693.693,0,1,0,.008,1.387,1.531,1.531,0,0,1,1.533,1.533,1.557,1.557,0,0,1-1.117,1.475v.273a.42.42,0,0,1-.84,0v-.273a1.548,1.548,0,0,1-1.113-1.475.42.42,0,1,1,.84,0,.693.693,0,1,0,.693-.693,1.534,1.534,0,0,1-.42-3.008v-.273a.42.42,0,0,1,.84,0v.273a1.552,1.552,0,0,1,1.117,1.475Z" transform="translate(-3680.153 -567.986)" fill="#727c8e"/>
  </g>
</svg>
