<svg xmlns="http://www.w3.org/2000/svg" xmlns:xlink="http://www.w3.org/1999/xlink" width="84" height="84" viewBox="0 0 84 84">
  <defs>
    <filter id="Ellipse_12" x="0" y="0" width="84" height="84" filterUnits="userSpaceOnUse">
      <feOffset dy="6" input="SourceAlpha"/>
      <feGaussianBlur stdDeviation="6" result="blur"/>
      <feFlood flood-color="#f8d31c" flood-opacity="0.396"/>
      <feComposite operator="in" in2="blur"/>
      <feComposite in="SourceGraphic"/>
    </filter>
  </defs>
  <g id="icon" transform="translate(-7 -178)">
    <g transform="matrix(1, 0, 0, 1, 7, 178)" filter="url(#Ellipse_12)">
      <circle id="Ellipse_12-2" data-name="Ellipse 12" cx="24" cy="24" r="24" transform="translate(18 12)" fill="#f6cd00"/>
    </g>
    <path id="Path_236" data-name="Path 236" d="M-307.346,474.9l-4.551-7.882-4.551-7.882a1.793,1.793,0,0,0-3.106,0l-4.551,7.882-4.551,7.882a1.793,1.793,0,0,0,1.553,2.69h18.2A1.793,1.793,0,0,0-307.346,474.9Zm-9.552-9.8-.3,6.282h-1.581l-.319-6.282Zm-1.1,9.5a1.205,1.205,0,0,1-1.248-1.262,1.205,1.205,0,0,1,1.248-1.262,1.2,1.2,0,0,1,1.234,1.262A1.194,1.194,0,0,1-317.993,474.59Z" transform="translate(367 -256.41)" fill="#f9fafb"/>
  </g>
</svg>
