<svg xmlns="http://www.w3.org/2000/svg" width="18.888" height="12.116" viewBox="0 0 18.888 12.116">
  <g id="Group_155" data-name="Group 155" transform="translate(-2784.958 98.993)">
    <g id="Group_151" data-name="Group 151" transform="translate(2784.958 -95.723)">
      <path id="Path_93" data-name="Path 93" d="M2801.653-85.6h-14.5a2.21,2.21,0,0,1-2.2-2.2v-6.65h18.887V-87.8A2.2,2.2,0,0,1,2801.653-85.6Zm-15.47-2.2a.982.982,0,0,0,.976.974h14.494a.971.971,0,0,0,.968-.973v-5.424h-16.438Z" transform="translate(-2784.958 94.451)" fill="#727c8e"/>
    </g>
    <g id="Group_152" data-name="Group 152" transform="translate(2784.958 -98.993)">
      <path id="Path_94" data-name="Path 94" d="M2803.847-95.679h-1.224V-96.8a.97.97,0,0,0-.969-.97h-14.5a.977.977,0,0,0-.975.971v1.119h-1.224V-96.8a2.2,2.2,0,0,1,2.2-2.194h14.5a2.2,2.2,0,0,1,2.194,2.194Z" transform="translate(-2784.958 98.993)" fill="#727c8e"/>
    </g>
    <g id="Group_153" data-name="Group 153" transform="translate(2792.547 -90.54)">
      <rect id="Rectangle_1484" data-name="Rectangle 1484" width="8.639" height="0.948" fill="#727c8e"/>
    </g>
    <g id="Group_154" data-name="Group 154" transform="translate(2792.547 -92.727)">
      <rect id="Rectangle_1485" data-name="Rectangle 1485" width="8.639" height="0.948" fill="#727c8e"/>
    </g>
  </g>
</svg>
