<svg xmlns="http://www.w3.org/2000/svg" width="22.213" height="22.213" viewBox="0 0 22.213 22.213">
  <path id="Path_175" data-name="Path 175" d="M-965.007,2535.886a10.719,10.719,0,0,0-10.707-10.707,10.719,10.719,0,0,0-10.706,10.707,10.68,10.68,0,0,0,3.475,7.887l-.01.009.347.293c.023.019.047.034.07.053.185.153.376.3.571.439.063.046.126.091.19.135q.312.215.639.408l.143.083c.239.135.482.264.732.382l.056.025a10.611,10.611,0,0,0,2.59.819l.071.013c.282.049.567.088.856.114l.106.009c.287.023.578.039.872.039s.58-.016.865-.038l.108-.008q.429-.04.848-.112l.073-.014a10.572,10.572,0,0,0,2.553-.8l.089-.04q.36-.17.705-.364l.171-.1c.209-.124.415-.252.615-.389.072-.049.143-.1.214-.152.171-.123.339-.25.5-.383.036-.03.075-.054.111-.085l.356-.3-.01-.009A10.679,10.679,0,0,0-965.007,2535.886Zm-20.634,0a9.939,9.939,0,0,1,9.928-9.928,9.939,9.939,0,0,1,9.928,9.928,9.9,9.9,0,0,1-3.344,7.421,2.984,2.984,0,0,0-.348-.209l-3.3-1.648a.863.863,0,0,1-.479-.776v-1.151c.076-.094.157-.2.24-.318a7.927,7.927,0,0,0,1.018-1.994,1.414,1.414,0,0,0,.812-1.281v-1.38a1.412,1.412,0,0,0-.345-.922v-1.818a3.138,3.138,0,0,0-.733-2.282,4.382,4.382,0,0,0-3.452-1.235,4.385,4.385,0,0,0-3.452,1.234,3.14,3.14,0,0,0-.733,2.283v1.817a1.418,1.418,0,0,0-.345.922v1.38a1.418,1.418,0,0,0,.522,1.1,7.306,7.306,0,0,0,1.2,2.487v1.127a.869.869,0,0,1-.453.763l-3.079,1.679a2.867,2.867,0,0,0-.292.186A9.9,9.9,0,0,1-985.641,2535.886Zm15.752,8.033q-.2.148-.415.285c-.065.043-.129.085-.2.125q-.275.171-.562.323l-.127.065a10.022,10.022,0,0,1-1.358.575l-.049.017q-.367.121-.741.215h0c-.252.062-.508.114-.765.156l-.021,0c-.242.039-.486.068-.73.089l-.13.01c-.242.019-.485.03-.729.03s-.493-.011-.738-.03l-.127-.009c-.247-.022-.492-.051-.736-.092l-.033-.005a9.906,9.906,0,0,1-1.515-.378l-.046-.015c-.245-.083-.487-.176-.725-.277l-.005,0c-.225-.1-.445-.2-.664-.318l-.085-.044c-.2-.106-.394-.221-.586-.341l-.169-.108c-.176-.116-.351-.237-.521-.364l-.052-.041.037-.021,3.079-1.679a1.646,1.646,0,0,0,.859-1.446v-1.4l-.09-.108a6.515,6.515,0,0,1-1.168-2.42l-.035-.154-.133-.086a.646.646,0,0,1-.3-.542v-1.38a.635.635,0,0,1,.217-.477l.129-.116v-2.168l0-.051a2.344,2.344,0,0,1,.544-1.7,3.667,3.667,0,0,1,2.867-.968,3.678,3.678,0,0,1,2.86.96,2.387,2.387,0,0,1,.55,1.705l0,2.22.128.116a.636.636,0,0,1,.217.476v1.38a.65.65,0,0,1-.46.614l-.193.06-.062.192a7.2,7.2,0,0,1-.972,1.959c-.1.145-.2.272-.286.37l-.1.11v1.44a1.636,1.636,0,0,0,.91,1.472l3.3,1.648.063.033C-969.8,2543.86-969.847,2543.888-969.89,2543.919Z" transform="translate(986.82 -2524.78)" fill="#727c8e" stroke="#727c8e" stroke-width="0.8"/>
</svg>
