<svg xmlns="http://www.w3.org/2000/svg" width="21.063" height="20.768" viewBox="0 0 21.063 20.768">
  <g id="Group_158" data-name="Group 158" transform="translate(-2788.038 77.315)">
    <g id="Group_156" data-name="Group 156" transform="translate(2793.412 -77.315)">
      <path id="Path_95" data-name="Path 95" d="M2800.361-75.5a1.469,1.469,0,0,0-1.045-.433,1.47,1.47,0,0,0-1.046.433,1.479,1.479,0,0,0,0,2.092,1.477,1.477,0,0,0,1.046.432,1.476,1.476,0,0,0,1.045-.432A1.48,1.48,0,0,0,2800.361-75.5ZM2807-61.784l-10.2-10.2-.5-5.332,5.491.346,10.2,10.2Zm-6.389-8.978.673-.673c.365-.364.674-.686.956-1l.014.007a11.607,11.607,0,0,0-.4,1.178l-.384,1.34.53.531,2.236-2.236-.464-.465-.65.651a11.382,11.382,0,0,0-.893.977l-.011-.009a8.959,8.959,0,0,0,.4-1.132l.355-1.284-.591-.59-2.236,2.236Zm3.351,3.352.415-.415-.918-.92.53-.53.823.822.412-.411-.822-.824.464-.464.873.874.415-.415-1.38-1.38-2.237,2.236Zm1.384,1.384,1.176-.75c.278-.172.527-.348.819-.56l.008.006c-.23.283-.4.528-.585.8l-.773,1.152.548.547,2.814-1.659-.515-.514-1.1.733c-.312.219-.624.431-.906.646l-.006-.006c.215-.283.418-.558.631-.869l.763-1.122-.538-.537-1.1.727c-.333.219-.654.435-.933.64l-.006-.006c.188-.263.431-.6.65-.916l.75-1.089-.541-.54-1.7,2.766Z" transform="translate(-2796.297 77.315)" fill="#727c8e"/>
    </g>
    <g id="Group_157" data-name="Group 157" transform="translate(2788.038 -72.236)">
      <path id="Path_96" data-name="Path 96" d="M2804.506-54.085l-1.543,1.543a2.049,2.049,0,0,0,.208.227,1.045,1.045,0,0,0,1.642-.01.968.968,0,0,0-.016-1.514A1.85,1.85,0,0,0,2804.506-54.085Z" transform="translate(-2793.252 64.121)" fill="#727c8e"/>
      <path id="Path_97" data-name="Path 97" d="M2793.37-69l-5.332-.5.345,5.492,10.2,10.2,4.988-4.985Zm-3.519,3.56a1.473,1.473,0,0,1-.433-1.045,1.471,1.471,0,0,1,.433-1.045,1.478,1.478,0,0,1,2.092,0,1.474,1.474,0,0,1,.432,1.045,1.476,1.476,0,0,1-.432,1.045A1.48,1.48,0,0,1,2789.851-65.445Zm2.544,2.834c-.5-.5-.544-1.1.135-1.78l1.236-1.236.394.394-1.258,1.258c-.422.422-.442.793-.176,1.059.285.286.649.26,1.072-.163l1.258-1.258.394.394-1.232,1.233A1.161,1.161,0,0,1,2792.4-62.611Zm1.8,1.8a1.817,1.817,0,0,1-.448-.717l.413-.24a1.54,1.54,0,0,0,.384.66c.253.253.512.275.688.1s.15-.368-.026-.742c-.227-.484-.266-.9.045-1.211a.946.946,0,0,1,1.383.141,1.61,1.61,0,0,1,.411.628l-.413.221a1.3,1.3,0,0,0-.327-.532c-.25-.249-.493-.224-.618-.1-.167.167-.118.368.057.768.234.516.227.887-.083,1.2C2795.319-60.3,2794.756-60.258,2794.2-60.815Zm2.51,2.446-1.3-1.3,2.157-2.158,1.254,1.255-.323.323-.861-.861-.557.557.813.813-.32.321-.813-.813-.634.633.909.91Zm2.125,1.582a2.041,2.041,0,0,1-1.271-.683,6.032,6.032,0,0,1-.5-.56l2.122-2.123a5.762,5.762,0,0,1,.673.584,1.853,1.853,0,0,1,.63,1.13,1.363,1.363,0,0,1-.457,1.13A1.58,1.58,0,0,1,2798.834-56.787Z" transform="translate(-2788.038 69.509)" fill="#727c8e"/>
    </g>
  </g>
</svg>
