<svg xmlns="http://www.w3.org/2000/svg" width="16.245" height="20.38" viewBox="0 0 16.245 20.38">
  <g id="Group_170" data-name="Group 170" transform="translate(-2788.234 199.62)">
    <rect id="Rectangle_1489" data-name="Rectangle 1489" width="9.545" height="1.289" transform="translate(2791.584 -189.734)" fill="#727c8e"/>
    <rect id="Rectangle_1490" data-name="Rectangle 1490" width="9.545" height="1.289" transform="translate(2791.584 -195.318)" fill="#727c8e"/>
    <rect id="Rectangle_1491" data-name="Rectangle 1491" width="9.545" height="1.282" transform="translate(2791.584 -192.523)" fill="#727c8e"/>
    <path id="Path_103" data-name="Path 103" d="M2802.042-198.77h-12.958v18.679h14.544v-17.092Z" transform="translate(0)" fill="none" stroke="#727c8e" stroke-miterlimit="10" stroke-width="1.701"/>
    <g id="Group_169" data-name="Group 169" transform="translate(2793.637 -187.494)">
      <path id="Path_104" data-name="Path 104" d="M2797.032-181.643a1.222,1.222,0,0,1-1.187,1.365,1.176,1.176,0,0,1-1.167-1.292,1.223,1.223,0,0,1,1.2-1.345A1.141,1.141,0,0,1,2797.032-181.643Zm-1.609.046c0,.448.152.772.442.772s.422-.291.422-.772c0-.435-.119-.772-.429-.772S2795.423-182.026,2795.423-181.6Zm.475,3.112,2.459-4.432.438.186-2.467,4.431Zm4.22-1.379a1.223,1.223,0,0,1-1.187,1.366,1.184,1.184,0,0,1-1.167-1.292,1.223,1.223,0,0,1,1.2-1.345A1.142,1.142,0,0,1,2800.118-179.863Zm-1.6.047c-.007.448.146.771.435.771s.422-.29.422-.771c0-.436-.112-.772-.422-.772S2798.515-180.245,2798.515-179.816Z" transform="translate(-2794.678 182.916)" fill="#727c8e"/>
    </g>
  </g>
</svg>
