<svg xmlns="http://www.w3.org/2000/svg" width="20.64" height="19.53" viewBox="0 0 20.64 19.53">
  <g id="Group_168" data-name="Group 168" transform="translate(-2753.624 171.126)">
    <g id="Group_163" data-name="Group 163" transform="translate(2765.41 -171.126)">
      <g id="Group_159" data-name="Group 159" transform="translate(1.528 12.234)">
        <path id="Path_98" data-name="Path 98" d="M2771.563-152.4a2.082,2.082,0,0,1-2.077-2.075,2.082,2.082,0,0,1,2.074-2.077,2.083,2.083,0,0,1,2.077,2.074v0A2.083,2.083,0,0,1,2771.563-152.4Zm0-2.724a.651.651,0,0,0-.646.649.651.651,0,0,0,.649.647.65.65,0,0,0,.645-.648A.65.65,0,0,0,2771.56-155.123Z" transform="translate(-2769.486 156.551)" fill="#727c8e"/>
      </g>
      <g id="Group_160" data-name="Group 160" transform="translate(5.997)">
        <path id="Path_99" data-name="Path 99" d="M2774.811-171.126v2.557h2.773Z" transform="translate(-2774.811 171.126)" fill="#727c8e"/>
      </g>
      <g id="Group_161" data-name="Group 161" transform="translate(0 16.516)">
        <path id="Path_100" data-name="Path 100" d="M2769.453-151.336l-.2-.114-1.588,2.828H2770v-2.466l-.145-.057A3.362,3.362,0,0,1,2769.453-151.336Z" transform="translate(-2767.666 151.45)" fill="#727c8e"/>
      </g>
      <g id="Group_162" data-name="Group 162" transform="translate(4.832 16.516)">
        <path id="Path_101" data-name="Path 101" d="M2773.855-151.306a3.3,3.3,0,0,1-.312.192l-.12.065v2.614h2.329l-1.691-3.014Z" transform="translate(-2773.423 151.45)" fill="#727c8e"/>
      </g>
    </g>
    <g id="Group_164" data-name="Group 164" transform="translate(2756.553 -162.413)">
      <rect id="Rectangle_1486" data-name="Rectangle 1486" width="9.518" height="1.058" transform="translate(0)" fill="#727c8e"/>
    </g>
    <g id="Group_165" data-name="Group 165" transform="translate(2756.553 -164.998)">
      <rect id="Rectangle_1487" data-name="Rectangle 1487" width="9.518" height="1.066" transform="translate(0 0)" fill="#727c8e"/>
    </g>
    <g id="Group_166" data-name="Group 166" transform="translate(2756.553 -167.575)">
      <rect id="Rectangle_1488" data-name="Rectangle 1488" width="9.518" height="1.058" transform="translate(0)" fill="#727c8e"/>
    </g>
    <g id="Group_167" data-name="Group 167" transform="translate(2753.624 -171.055)">
      <path id="Path_102" data-name="Path 102" d="M2774.264-156.528h-2.4l-.079-.624a2.8,2.8,0,0,0-2.775-2.448,2.8,2.8,0,0,0-2.767,2.448l-.079.624h-12.54v-14.513h17.056v3.324h3.584Zm-19.212-1.428h9.9a4.228,4.228,0,0,1,4.056-3.072,4.233,4.233,0,0,1,3.826,2.437v-7.7h-3.584v-3.324h-14.2Z" transform="translate(-2753.624 171.041)" fill="#727c8e"/>
    </g>
  </g>
</svg>
