<svg xmlns="http://www.w3.org/2000/svg" width="93.902" height="81.752" viewBox="0 0 93.902 81.752">
  <g id="Group_134" data-name="Group 134" transform="translate(-7160.26 -523.706)">
    <path id="Path_75" data-name="Path 75" d="M7190.061,565.108l2.134,4.238-2.134,14.882,4.89,4.895,4.891-4.895-2.131-14.882,2.131-4.238Zm4.936-41.4a18.424,18.424,0,1,1-18.432,18.431A18.446,18.446,0,0,1,7195,523.706ZM7179.3,548.383l0-.006h0Zm23.866-7.547a22.441,22.441,0,0,0,5.745,8.08l3.035-4c-1.272-.919-2.825-3.29-3.831-5.386a34.266,34.266,0,0,1-1.629-3.855l-1.476-4.291-2.857,3.519a2.417,2.417,0,0,1-.168.2c-1,1.085-6.092,6.2-15.524,7.936a24.88,24.88,0,0,1-4.611.462,18.224,18.224,0,0,1-2.027-.107l-.521,4.99a23.815,23.815,0,0,0,2.548.132,30.187,30.187,0,0,0,5.528-.543A34.955,34.955,0,0,0,7203.168,540.836Zm31.976,44a3.009,3.009,0,0,0-1.682,5.508v5.814h3.368v-5.814a3.01,3.01,0,0,0-1.687-5.508Zm-74.884,20.6V581.656a14.826,14.826,0,0,1,14.806-14.8h1.585l13,38.584Zm69.939-31.283h9.895v3.874H7230.2Zm-18.594,10.889v17.919a6.875,6.875,0,0,0,.476,2.481l0-.006h-11.356l12.636-38.584h1.572a14.792,14.792,0,0,1,11.2,5.159,4.211,4.211,0,0,0-.459,1.887v4.129h-7.052A7.024,7.024,0,0,0,7211.605,585.045Zm42.557,17.919a2.518,2.518,0,0,1-2.491,2.494h-33.049a2.518,2.518,0,0,1-2.493-2.494v-5.255a35.44,35.44,0,0,0,38.033,0Zm0-10.88a30.595,30.595,0,0,1-38.033.006v-7.044a2.518,2.518,0,0,1,2.493-2.49h33.049a2.516,2.516,0,0,1,2.491,2.49Zm-88.388-8.382h10.267v-4.566h-10.267Z" transform="translate(0 0)" fill="#e48646"/>
  </g>
</svg>
